<?xml version="1.0" standalone="no"?>
<!DOCTYPE svg PUBLIC "-//W3C//DTD SVG 1.1//EN" "http://www.w3.org/Graphics/SVG/1.1/DTD/svg11.dtd">
<svg xmlns="http://www.w3.org/2000/svg">
<metadata>Generated by Fontastic.me</metadata>
<defs>
<font id="font-gestures" horiz-adv-x="512">
<font-face font-family="font-gestures" units-per-em="512" ascent="480" descent="-32"/>
<missing-glyph horiz-adv-x="512" />

<glyph glyph-name="lefthand-5" unicode="&#97;" d="M112 92c-14 28-16 52-19 103-1 7-1 14-2 23-5 66-10 130-10 130 0 0 0 1 0 1 0 17 13 31 30 31 9 0 17-4 22-9l-1 39c0 20 18 36 38 36 11 0 25-5 30-13l0 13c0 20 13 36 32 36 20 0 34-16 34-36l0-11c7 10 17 16 30 16 20 0 36-16 36-38l-5-216 29 30c8 8 19 13 30 13 11 0 22-5 30-13 16-16 16-43 0-59 0 0-27-30-65-68l-6-6c-36-36-67-68-130-68-65 0-86 33-103 66z m255 125l-43-45c-2-2-5-3-8-2-3 1-5 4-5 7l5 236c0 13-8 23-20 23-12 0-21-10-21-24l-5-144c0-4-4-9-8-9-3 0-7 5-7 9l-5 178c0 12-7 21-18 21-11 0-17-9-17-21l0-161c0-4-5-10-10-10-4 0-8 4-8 8l-7 127c0 11-10 21-22 21-11 0-21-9-21-21l5-166c1-4-3-8-7-8-4 0-8 3-8 7l-10 105c0 0 0 1 0 1 0 8-7 15-16 15-8 0-15-7-15-15 0-5 5-66 10-130 1-8 1-16 2-23 4-49 5-72 18-97 16-31 33-57 89-57 56 0 84 27 119 63l6 6c38 38 64 67 65 68 5 5 8 12 8 19 0 7-3 14-8 19-5 5-12 7-19 7-7 0-14-2-19-7z"/>
<glyph glyph-name="lefthand-5-spread" unicode="&#98;" d="M230 26c-104 0-118 106-126 162-1 7-1 14-2 20-5 25-14 55-22 81-9 26-15 48-15 60 0 17 14 30 26 30 15 0 28-10 35-27l21-55c-4 44-9 101-10 109-2 12 1 23 8 30 5 7 13 10 22 10 19 0 33-13 37-34 1-6 3-20 6-36l0 70c0 20 15 36 35 36 19 0 35-16 35-36l3-104c6 31 11 62 12 72 3 32 24 37 36 37 20 0 36-16 36-38 0 0 0-1 0-1l-23-213 27 28c8 8 19 13 30 13 11 0 22-5 29-13 17-16 17-43 1-59 0 0-27-30-65-68l-6-6c-36-36-68-68-130-68z m-139 338c-4 0-11-6-11-15 0-10 7-32 15-56 8-26 17-56 22-83 1-6 2-12 3-20 7-59 19-148 110-148 56 0 84 27 119 63l6 6c38 38 64 67 64 68 11 10 11 27 1 38-5 5-12 7-19 7-7 0-14-2-19-7l-43-45c-2-2-6-3-9-2-3 2-4 5-4 8l26 235c-1 14-9 23-21 23-9 0-19-3-20-24-2-21-25-139-26-144-1-4-4-6-8-6-4 0-7 3-7 7l-5 177c0 12-9 21-20 21-11 0-20-9-20-21l0-161c0-4-3-8-7-8-4 0-7 3-8 7 0 0-18 107-21 125-2 10-7 22-22 22-4 0-8-2-11-5-3-4-5-11-4-18 2-13 15-157 15-163 0-4-2-8-6-9-3-1-7 1-9 5l-41 105c-2 7-8 18-20 18z"/>
<glyph glyph-name="lefthand-fist" unicode="&#99;" d="M111 328c0-5 0-127 16-159 17-34 38-66 103-66 56 0 105 27 137 75 31 47 22 109-6 134-8 7-15 12-19 14l0 20c0 22-15 39-35 39-8 0-15-3-21-7-5 18-23 27-40 27-15 0-28-10-33-23-6 5-14 8-23 8-19 0-34-15-36-33-4 1-9 2-11 2-18 0-32-14-32-31z m15 0c0 8 8 16 16 16 4 0 12-2 12-4l0-19c0-5 3-8 7-8 5 0 8 3 8 8l0 33c0 11 9 20 20 20 12 0 21-9 21-20l0-13c0-4 3-8 8-8 4 0 7 4 7 8l0 28c0 12 9 21 21 21 10 0 25-6 25-23l0-21c0-4 4-7 9-7 4 0 8 3 8 7 0 11 5 23 19 23 14 0 21-11 21-23l0-92c0-7 2-10 7-10 4 0 6 4 6 10l0 54c0 0 7-4 11-8 30-27 21-85 2-113-29-44-73-69-124-69-56 0-74 26-89 58-12 23-15 118-15 152z"/>
<glyph glyph-name="righthand-1" unicode="&#100;" d="M281 42c-61 0-102 22-137 75-32 47-23 108 5 133 8 8 14 12 19 14l-4 164c0 22 15 39 36 39 20 0 36-17 36-39l3-95c6 7 15 11 25 11 15 0 27-10 31-24 6 5 14 8 22 8 19 0 35-14 36-33 6 2 11 3 13 3 18 0 34-15 34-31 0-5-1-128-17-160-16-33-38-65-102-65z m-113 204c-2-2-5-4-9-7-29-27-21-86-3-114 33-48 69-68 125-68 56 0 73 26 89 57 12 24 14 118 14 153 0 8-9 15-18 15-3 0-10-2-13-3l0-20c0-4-3-7-7-7-5 0-8 3-8 7l0 33c0 12-9 21-21 21-11 0-20-9-20-21 0-4-3-7-8-7-4 0-7 3-7 7l0 16c0 10-6 20-18 20-11 0-19-8-19-20 0-1 0-1 0-1l-4-23c-1-4-4-7-8-7-4 0-7 4-7 8l-6 143c0 14-8 23-20 23-12 0-21-9-21-23l5-235c1-4-3-8-7-8-4 0-8 3-8 7z"/>
<glyph glyph-name="righthand-1-alt" unicode="&#101;" d="M300 42c-63 0-94 31-130 67l-6 7c-38 38-65 67-65 68-8 7-12 18-12 29 0 11 4 22 12 30 8 8 19 12 30 12 11 0 22-4 29-12l30-31 1 216c0 22 15 39 36 39 20 0 36-17 36-39l0-92c8 5 17 8 26 8 15 0 28-10 33-24 7 5 14 8 23 8 19 0 34-14 36-32 3 1 7 2 10 2 17 0 30-14 30-31 0-5 0-128-16-160-17-33-39-65-103-65z m-171 198c-7 0-14-3-19-8-5-5-8-12-8-19 0-7 3-14 8-19 0 0 27-30 65-68l6-6c35-35 63-63 119-63 56 0 73 26 89 57 12 24 14 118 14 153 0 9-6 15-14 15-4 0-8-1-10-3l0-20c0-4-4-7-8-7-4 0-7 3-7 7l0 33c0 12-10 21-21 21-11 0-20-9-20-21l0-12c0-5-4-8-8-8-4 0-8 3-8 8l0 28c0 11-9 20-20 20-11 0-26-6-26-23l0-20c0-4-3-8-8-8-4 0-7 4-7 8l0 143c0 14-9 23-21 23-12 0-21-9-21-23l0-235c0-3-2-6-5-7-3-2-6-1-8 1l-44 45c-4 5-11 8-18 8z"/>
<glyph glyph-name="righthand-1-pinch" unicode="&#102;" d="M297 88c-35 0-64 14-95 28l-8 4c-49 23-84 42-85 42-20 9-29 34-20 56 7 14 22 24 38 24 6 0 12-2 18-4l39-19c-9 24-26 68-40 92-12 21-23 28-33 35-7 5-13 9-18 16-6 9-8 21-5 31 4 10 11 17 21 21 3 1 6 1 10 1 20 0 42-18 57-33 9-8 18-21 26-33 4 12 14 22 26 26 4 2 8 2 12 2 11 0 21-4 27-12 5 7 11 12 19 15 4 1 8 2 12 2 14 0 27-8 33-21 3 3 7 5 10 6 3 2 7 2 11 2 13 0 25-8 30-20 1-4 43-120 39-155-4-37-14-75-74-97-18-6-34-9-50-9z m-170 138c-10 0-19-6-24-15-6-13 0-29 13-35 1-1 36-19 84-42l8-4c31-14 58-27 89-27l0 0c14 0 29 3 44 8 53 20 61 50 65 85 3 26-27 116-39 148-2 6-8 10-15 10-2 0-4 0-6-1-3-1-7-5-9-7l6-19c2-4 0-8-4-9-4-2-9 0-10 4l-12 31c-2 8-10 14-19 14-2 0-5-1-7-1-5-2-9-6-11-11-3-5-3-10-1-16l4-12c2-4 0-8-4-10-4-1-9 1-10 5l-10 27c-3 8-10 13-19 13-2 0-5 0-7-1-10-4-22-15-16-31l7-19c1-4-1-8-4-10-4-1-8 0-10 4 0 0-25 47-44 66-22 21-41 32-52 28-5-2-9-6-11-11-2-6-1-12 3-17 3-5 7-8 13-12 11-7 25-16 38-40 21-36 46-110 47-113 2-3 1-6-2-8-2-2-5-3-8-2l-56 28c-3 2-7 2-11 2z"/>
<glyph glyph-name="righthand-2" unicode="&#103;" d="M280 26c-61 0-102 23-137 75-31 48-22 109 6 134 8 7 14 11 18 14l-4 164c0 22 16 38 36 38 13 0 23-6 30-15l0 10c0 20 15 36 35 36 19 0 33-15 33-36l0-139c5 4 13 6 20 6 19 0 35-15 36-33 6 2 11 2 13 2 18 0 33-14 33-30 0-6 0-128-16-160-17-33-38-66-103-66z m-113 205c-2-2-5-4-8-7-30-28-22-86-3-114 32-49 68-68 124-68 56 0 73 26 89 57 12 24 15 118 15 153 0 7-9 15-18 15-4 0-13-2-13-4l0-19c0-4-3-8-7-8-5 0-8 4-8 8l0 33c0 11-9 21-21 21-11 0-20-10-20-21 0-4-3-8-8-8-4 0-7 4-7 8l0 169c0 10-6 21-18 21-11 0-20-9-20-21l-4-178c0-4-1-9-7-9-6 0-8 5-8 9l-5 144c0 14-9 24-21 24-12 0-20-10-20-23l5-236c0-4-3-7-8-7-4 0-7 3-8 7z"/>
<glyph glyph-name="righthand-2-alt" unicode="&#104;" d="M304 26c-62 0-93 32-129 68l-7 6c-38 38-65 68-65 68-16 16-16 43 1 59 8 8 18 13 29 13 11 0 22-5 30-13l29-30-4 216c0 22 15 38 35 38 13 0 24-6 30-16l0 11c0 20 16 36 35 36 20 0 35-15 35-36l0-139c5 4 12 6 20 6 19 0 34-15 36-33 5 2 10 2 12 2 17 0 32-14 32-30 0-6 0-128-16-160-16-33-38-66-103-66z m-171 198c-7 0-13-2-18-7-6-5-8-12-8-19 0-7 2-14 7-19 1-1 27-30 65-68l6-6c35-36 63-63 119-63 56 0 74 26 89 57 12 24 15 118 15 153 0 8-8 15-17 15-4 0-9-2-12-3l0-20c0-4-4-8-8-8-4 0-7 4-7 8l0 33c0 11-10 21-21 21-11 0-20-10-20-21 0-4-4-8-8-8-4 0-8 4-8 8l0 169c0 12-8 21-19 21-11 0-19-9-19-21l-5-178c0-4-3-9-8-9-4 0-7 5-7 9l-5 144c0 11-7 24-21 24-12 0-20-10-20-23l5-236c0-3-2-6-5-7-3-1-6 0-8 2l-43 45c-5 5-12 7-19 7z"/>
<glyph glyph-name="righthand-3" unicode="&#105;" d="M279 26c-61 0-102 23-136 75-32 48-23 109 5 134 8 7 14 11 18 14l-3 164c0 22 15 38 36 38 13 0 23-6 30-16l0 11c0 20 15 36 34 36 20 0 34-16 34-36l0-13c10 8 18 13 29 13 20 0 36-16 36-36l-4-129c4 1 7 1 10 1 17 0 30-14 30-30 0-6 0-128-16-160-16-33-38-66-103-66z m-112 205c-3-2-5-4-9-7-30-28-21-86-3-114 32-49 68-68 124-68 56 0 74 26 90 57 12 24 14 118 14 153 0 8-7 15-15 15-3 0-8-2-10-3 0-6 0-19 0-20-1-5-4-8-8-8-5 0-7 4-7 8l5 166c0 12-10 21-21 21-12 0-22-10-22-21l-6-127c0-4-4-8-9-8-6 0-8 6-8 10l0 161c0 12-8 21-19 21-11 0-19-9-19-21l-5-177c0-4-3-7-7-7-4 0-8 3-8 7l-5 144c0 11-6 23-20 23-12 0-21-10-21-23l5-236c0-4-3-7-7-7-5 0-8 3-8 7z"/>
<glyph glyph-name="righthand-4" unicode="&#106;" d="M271 26c-61 0-102 23-137 75-31 48-22 109 6 134 8 7 14 11 18 14l-3 164c0 22 15 38 36 38 12 0 23-6 29-16l1 11c0 20 16 36 36 36 19 0 35-16 35-36l0-13c5 8 16 13 27 13 20 0 36-16 36-36l-2-39c6 5 14 9 22 9 17 0 31-14 31-31 0 0 0-1 0-1 0 0-5-64-11-130 0-9-1-16-1-23-4-51-6-75-20-103-16-33-38-66-103-66z m-112 205c-3-2-6-4-9-7-30-28-22-86-3-114 32-49 68-68 124-68 56 0 74 26 89 57 13 25 15 48 18 97 1 7 1 15 2 23 5 64 10 125 10 130 0 8-7 15-15 15-9 0-15-7-15-15 0 0 0-1 0-1l-11-105c0-4-4-7-8-7-4 0-7 4-7 8l5 166c0 12-9 21-20 21-12 0-22-10-22-21l-7-127c0-4-2-8-7-8-4 0-7 6-7 10l0 161c0 12-8 21-19 21-12 0-21-9-21-21l-4-178c0-4-4-9-8-9-4 0-8 5-8 9l-5 144c0 14-8 24-20 24-12 0-21-10-21-23l5-237c0-4-4-9-7-9-4 0-8 5-8 9z"/>
<glyph glyph-name="righthand-5" unicode="&#107;" d="M294 26c-63 0-94 32-130 68l-6 6c-38 38-65 68-65 68-16 16-16 43 0 59 8 8 19 13 30 13 11 0 21-5 29-13l30-30-5 216c0 22 16 38 36 38 13 0 24-6 30-16l0 11c0 20 15 36 35 36 19 0 34-16 34-36l0-13c5 8 18 13 29 13 20 0 36-16 36-36l-1-39c5 5 13 9 21 9 17 0 31-14 31-31 0 0 0-1 0-1 0 0-5-64-10-130-1-9-1-16-2-23-4-51-5-75-19-103-17-33-39-66-103-66z m-171 198c-7 0-14-2-19-7-5-5-8-12-8-19 0-7 3-14 8-19 0-1 27-30 65-68l6-6c35-36 63-63 119-63 56 0 73 26 89 57 13 25 14 48 18 97 0 7 1 15 2 23 4 64 9 125 10 130 0 8-7 15-16 15-8 0-15-7-15-15 0 0 0-1 0-1l-10-105c-1-4-4-7-8-7-5 0-8 4-8 8l6 166c0 12-10 21-21 21-12 0-22-10-22-21l-6-127c0-4-4-8-8-8-4 0-8 6-8 10l0 161c0 12-8 21-19 21-11 0-20-9-20-21l-4-178c0-4-4-9-8-9-3 0-7 5-7 9l-5 144c0 14-9 24-21 24-12 0-20-10-20-23l5-236c0-3-2-6-5-7-3-1-6 0-9 2l-43 45c-5 5-11 7-18 7z"/>
<glyph glyph-name="righthand-5-spread" unicode="&#108;" d="M283 26c-63 0-94 32-130 68l-6 6c-38 38-65 68-65 68-16 16-16 43 0 59 8 8 19 13 30 13 11 0 22-5 30-13l27-28-23 213c0 0 0 1 0 1 0 22 15 38 36 38 12 0 32-5 36-37 0-10 6-41 12-72l2 104c0 20 16 36 36 36 19 0 34-16 34-36l0-72 7 38c3 21 17 34 37 34 8 0 16-3 22-10 7-7 9-18 8-30-1-8-6-65-10-109l21 55c7 17 20 27 35 27 12 0 26-13 26-30 0-12-7-34-15-60-8-26-18-56-22-81-1-6-2-13-3-20-7-56-21-162-125-162z m-171 198c-7 0-14-2-19-7-10-11-10-28 0-38 1-1 27-30 65-68l6-6c35-36 63-63 119-63 91 0 102 89 110 148 1 8 2 14 3 20 4 27 14 57 22 83 8 24 15 46 15 56 0 9-7 15-11 15-12 0-18-11-21-18l-41-105c-1-4-5-6-8-5-4 1-7 5-6 9 0 6 13 150 15 163 1 7-1 14-5 18-2 3-6 5-10 5-16 0-21-14-22-22l-22-126c-1-3-4-6-8-6-4 0-7 4-7 8l0 161c0 12-9 21-19 21-12 0-20-9-20-21l-5-177c0-4-3-7-7-7-4 0-7 2-8 6-1 5-24 123-26 144-2 21-11 24-20 24-12 0-21-9-21-23l26-235c0-3-2-6-5-8-3-1-6 0-8 2l-43 45c-5 5-12 7-19 7z"/>
<glyph glyph-name="righthand-fist" unicode="&#109;" d="M365 359c-3 0-7-1-12-2-1 18-17 33-36 33-8 0-16-3-22-8-5 13-18 23-34 23-17 0-34-9-39-27-6 4-13 7-21 7-20 0-35-17-35-39l0-20c-5-2-11-7-20-14-27-25-37-87-5-134 32-48 81-75 137-75 64 0 86 32 103 66 16 32 16 154 16 159 0 17-15 31-32 31z m2-183c-16-32-33-58-89-58-51 0-95 25-125 69-18 28-27 86 3 113 3 4 10 8 10 8l0-54c0-6 2-10 7-10 4 0 6 3 6 10l0 92c0 12 7 23 21 23 14 0 20-12 20-23 0-4 3-7 8-7 4 0 8 3 8 7l0 21c0 17 15 23 25 23 11 0 21-9 21-21l0-28c0-4 3-8 7-8 5 0 8 4 8 8l0 13c0 11 9 20 20 20 12 0 21-9 21-20l0-33c0-5 3-8 8-8 4 0 7 3 7 8l0 19c3 2 8 4 12 4 9 0 16-8 16-16 0-34-2-129-14-152z"/>
<glyph glyph-name="lefthand-1" unicode="&#110;" d="M125 107c-16 32-16 155-16 160 0 16 15 31 33 31 2 0 7-1 13-3 1 19 17 33 36 33 8 0 16-3 22-8 4 14 16 24 31 24 10 0 19-4 25-11l3 95c0 22 16 39 36 39 21 0 36-17 36-39l-3-164c4-2 10-6 18-14 28-25 37-86 6-133-35-53-76-75-137-75-65 0-87 32-103 65z m214 85c0-4-4-7-8-7-4 0-7 4-7 8l5 235c0 14-9 23-21 23-12 0-20-9-20-23l-5-143c-1-4-4-8-8-8-3 0-7 3-8 7l-3 23c0 0-1 0-1 1 0 12-8 20-19 20-13 0-19-10-19-20l0-16c0-4-3-7-7-7-4 0-7 3-7 7 0 12-10 21-21 21-11 0-21-9-21-21l0-33c0-4-3-7-8-7-4 0-7 3-7 7l0 20c-6 1-9 3-13 3-9 0-17-7-17-15 0-35 2-129 14-153 16-31 34-57 90-57 56 0 92 20 124 68 18 28 27 87-3 114-4 3-6 5-9 7z"/>
<glyph glyph-name="lefthand-1-alt" unicode="&#111;" d="M206 42c-65 0-87 32-103 65-16 32-16 155-16 160 0 16 15 31 33 31 2 0 8-1 13-3 2 19 17 33 36 33 9 0 16-3 23-8 5 14 18 24 33 24 9 0 18-3 26-8l0 92c0 23 13 39 33 39 20 0 34-16 34-39l0-216 29 31c8 8 19 12 30 12 11 0 22-4 29-12 17-17 17-43 1-60 0 0-27-29-65-67l-6-7c-37-36-68-67-130-67z m-86 240c-9 0-18-7-18-15 0-35 3-129 15-153 15-31 33-57 89-57 56 0 84 28 119 63l6 6c38 38 64 68 64 68 11 11 11 28 1 38-5 5-12 8-19 8-7 0-14-3-19-8l-42-45c-2-2-6-3-9-1-3 1-4 4-4 7l0 235c0 11-5 23-19 23-16 0-18-17-18-23l0-143c0-4-3-8-7-8-5 0-8 4-8 8l0 20c0 17-15 23-26 23-11 0-20-9-20-20l0-28c0-5-4-8-8-8-4 0-8 3-8 8l0 12c0 12-9 21-20 21-11 0-21-9-21-21l0-33c0-4-3-7-7-7-4 0-8 3-8 7l0 20c-3 1-9 3-13 3z"/>
<glyph glyph-name="lefthand-1-pinch" unicode="&#112;" d="M210 88c-16 0-33 3-50 9-61 23-70 60-74 97-4 36 37 151 39 156 4 12 16 20 30 20 3 0 7-1 11-2 3-1 7-4 10-6 6 12 18 21 32 21 5 0 9-1 13-3 8-2 14-8 18-15 7 8 17 13 28 13 4 0 8-1 12-2 12-5 22-14 26-26 8 12 17 24 25 32 15 16 38 34 58 34 3 0 7-1 10-2 10-3 17-11 20-21 4-10 2-21-4-31-5-7-11-11-18-15-10-7-22-15-33-35-14-25-31-68-40-93l39 19c5 3 11 4 17 4 17 0 31-9 38-24 10-21 1-46-20-56 0 0-35-19-84-42l-8-3c-31-15-61-29-95-29z m-55 266c-7 0-13-4-16-9-11-33-41-122-38-149 4-35 12-65 64-84 16-6 30-9 45-9 31 0 57 13 88 28l8 3c49 23 84 42 84 42 14 6 20 22 13 35-4 10-13 16-24 16-3 0-7-1-11-3l-55-27c-3-1-6-1-9 1-2 2-3 5-2 8 1 3 27 77 47 113 14 24 28 33 38 40 6 4 11 7 14 12 3 5 4 12 3 18-2 5-6 9-11 11-11 4-31-7-52-28-19-20-44-66-44-67-2-3-6-5-10-3-4 2-6 6-4 10l7 19c6 16-7 27-16 30-3 1-5 1-7 1-9 0-17-5-20-13l-9-26c-2-4-6-7-10-5-4 1-6 6-5 10l0 0 5 12c2 5 1 11-1 15-2 5-6 9-12 11-2 1-4 1-7 1-8 0-16-5-19-13l-11-31c-2-4-6-6-10-5-4 1-6 6-5 10l0 0 7 18c-2 3-6 6-10 7-1 1-3 1-5 1z"/>
<glyph glyph-name="lefthand-2" unicode="&#113;" d="M129 92c-16 32-16 154-16 160 0 16 16 30 33 30 2 0 8 0 13-2 1 18 17 33 36 33 7 0 15-2 20-6l0 139c0 21 14 36 34 36 19 0 34-16 34-36l0-10c7 9 17 15 30 15 20 0 36-16 36-38l-4-164c4-3 11-7 19-14 27-25 36-86 5-134-35-52-76-75-137-75-65 0-86 33-103 66z m215 85c-1-4-4-7-8-7-4 0-8 3-8 7l5 236c0 13-8 23-20 23-12 0-21-10-21-24l-5-144c0-4-1-9-8-9-6 0-7 5-7 9l-4 178c0 12-8 21-19 21-13 0-19-11-19-21l0-169c0-4-3-8-7-8-4 0-8 4-8 8 0 11-9 21-20 21-12 0-21-10-21-21l0-33c0-4-3-8-8-8-4 0-7 4-7 8l0 19c0 2-9 4-13 4-9 0-18-8-18-15 0-35 3-129 15-153 16-31 33-57 89-57 56 0 92 19 124 68 19 28 27 86-3 114-3 3-6 5-8 7z"/>
<glyph glyph-name="lefthand-2-alt" unicode="&#114;" d="M205 26c-64 0-86 33-103 66-16 32-16 154-16 160 0 18 18 30 34 30 1 0 7 0 13-2 2 18 17 33 36 33 8 0 15-2 20-6l0 139c0 21 14 36 33 36 20 0 35-16 35-36l0-10c6 9 17 15 29 15 20 0 36-16 36-38l-5-216 29 30c8 8 19 13 30 13 11 0 22-5 30-13 16-16 16-43 0-59 0 0-27-30-65-68l-6-6c-36-36-67-68-130-68z m-85 241c-8 0-18-7-18-15 0-35 2-129 14-153 16-32 33-57 89-57 56 0 84 27 119 63l6 6c38 38 65 67 65 68 10 10 10 27 0 38-5 5-12 7-19 7-7 0-14-2-19-7l-42-45c-3-2-6-3-9-2-3 1-5 4-5 7l5 236c0 11-6 23-20 23-14 0-20-12-20-23l-5-144c0-4-3-8-8-8-5 0-7 4-7 8l-5 177c0 12-8 20-19 20-12 0-17-10-17-20l0-169c0-4-4-8-8-8-4 0-8 4-8 8 0 11-9 21-20 21-11 0-21-10-21-21l0-33c0-4-3-8-7-8-4 0-8 4-8 8l0 19c-3 2-10 4-13 4z"/>
<glyph glyph-name="lefthand-3" unicode="&#115;" d="M129 92c-16 32-16 154-16 160 0 16 13 30 30 30 3 0 6 0 10-1l-4 129c0 20 17 36 37 36 11 0 19-5 29-13l0 13c0 20 14 36 33 36 20 0 34-16 34-36l1-11c6 10 17 16 29 16 21 0 36-16 36-38l-3-164c4-3 10-7 18-14 28-25 37-86 5-134-34-52-75-75-136-75-65 0-87 33-103 66z m214 85c0-4-3-7-8-7-4 0-7 3-7 7l5 236c0 13-9 23-21 23-14 0-20-12-20-23l-5-144c0-4-4-7-8-7-4 0-7 3-7 7l-5 177c0 12-8 21-19 21-11 0-18-9-18-21l0-161c0-4-3-10-8-10-6 0-9 4-9 8l-7 127c0 11-10 21-22 21-11 0-21-9-21-21l5-166c0-4-2-8-7-8-4 0-7 3-8 8 0 1 0 14 0 20-2 1-7 3-10 3-8 0-15-7-15-15 0-35 2-129 14-153 16-32 34-57 90-57 56 0 92 19 124 68 18 28 27 86-3 114-4 3-6 5-9 7z"/>
<glyph glyph-name="lefthand-4" unicode="&#116;" d="M136 92c-14 28-16 52-20 103 0 7-1 14-1 23-6 66-11 130-11 130 0 0 0 1 0 1 0 17 14 31 31 31 8 0 16-4 22-9l-2 39c0 20 17 36 37 36 11 0 23-5 28-13l0 13c0 20 15 36 34 36 20 0 36-16 36-36l0-11c6 10 17 16 29 16 21 0 36-16 36-38l-3-164c4-3 10-7 18-14 28-25 37-86 6-134-35-52-76-75-137-75-65 0-87 33-103 66z m214 84c0-4-4-9-8-9-3 0-7 5-7 9l5 237c0 13-9 23-21 23-12 0-20-10-20-24l-5-144c0-4-4-9-8-9-4 0-8 5-8 9l-4 178c0 12-8 21-20 21-11 0-18-9-18-21l0-161c0-4-4-10-9-10-4 0-7 4-7 8l-7 127c0 11-10 21-22 21-11 0-20-9-20-21l5-166c0-4-3-8-7-8-4 0-8 3-8 7l-11 105c0 0 0 1 0 1 0 8-7 15-15 15-8 0-15-7-15-15 0-5 5-66 10-130 0-8 1-16 2-23 3-49 5-72 18-97 15-31 33-57 89-57 56 0 92 19 124 68 19 28 27 86-3 114-3 3-6 5-9 7z"/>
<glyph glyph-name="fist-bump" unicode="&#117;" d="M191 177c-3 0-85 0-106 10-22 11-44 26-44 69 0 37 18 70 50 91 13 9 28 13 44 13 19 0 36-6 45-16 5-6 8-10 10-13l13 0c15 0 26-10 26-23 0-5-2-10-4-13 11-4 18-16 18-27 0-10-7-19-16-22 3-4 5-9 5-15 0-13-9-23-22-24 1-4 2-7 2-8 0-12-10-22-21-22z m-56 173c-9 0-24-2-38-11-29-20-46-49-46-83 0-37 18-49 39-60 16-8 79-9 101-9 6 0 11 6 11 12 0 3-2 6-3 9l-13 0c-3 0-5 3-5 5 0 3 2 5 5 5l23 0c7 0 13 7 13 14 0 8-6 14-13 14l-9 0c-3 0-5 2-5 5 0 3 2 5 5 5l19 0c7 0 13 6 13 14 0 7-4 17-15 17l-14 0c-2 0-5 1-5 4 0 3 3 5 5 5 8 0 16 3 16 12 0 9-8 13-16 13l-16 0c0 0 0 0-1 0l-44 0c0 0 0 0 0 0-3 0-5 2-5 5 0 2 2 5 5 5l36 0c-2 1-3 3-5 6-8 8-22 13-38 13z m183-173c-12 0-21 9-21 20 0 2 1 4 1 7-12 1-21 11-21 23 0 6 2 11 5 16-9 3-15 12-15 22 0 11 6 23 18 26-3 4-5 9-5 15 0 14 11 24 26 24l13 0c2 3 4 8 10 14 9 10 26 16 45 16 16 0 31-4 44-13 32-21 50-54 50-91 0-43-22-58-44-69-21-10-103-10-106-10z m-8 28c-1-4-3-5-3-8 0-5 5-10 11-10 23 0 86 2 102 10 20 10 38 22 38 59 0 34-16 63-46 83-14 9-28 11-38 11-15 0-30-5-38-13-2-3-3-5-5-6l36-1c3 0 5-2 5-5 0-3-2-5-5-5l-61 0c-8 0-16-5-16-14 0-9 8-14 16-14 3 0 5-1 5-4 0-3-2-5-5-5l-14 0c-11 0-15-10-15-17 0-7 6-13 13-13l19 0c3 0 5-3 5-6 0-2-2-5-5-5l-8 0c-8 0-14-6-14-13 0-8 6-14 14-14l22 0c3 0 5-2 5-5 0-3-2-5-5-5z m40 32l-21 21c-2 2-2 5 0 7l21 21c1 1 3 2 5 1 2-1 3-3 3-5l0-12 52 0c3 0 6-4 6-7 0-4-3-7-6-7l-52 0 0-15c0-2-1-4-3-5-2 0-4 0-5 1z m-194 0l20 21c2 2 2 5 0 7l-20 21c-2 1-4 2-6 1-2-1-3-3-3-5l0-12-51 0c-4 0-7-4-7-7 0-4 3-7 7-7l51 0 0-15c0-2 1-4 3-5 2 0 4 0 6 1z m98 112c-3 0-5 2-5 5l0 47c0 3 2 6 5 6 3 0 5-3 5-6l0-47c0-3-2-5-5-5z m28-10c-2 0-3 0-4 1-2 2-2 5 0 7l34 34c2 2 5 2 7 0 2-2 2-5 0-7l-34-34c-1-1-2-1-3-1z m-55 0c-1 0-3 0-4 1l-34 34c-2 2-2 5 0 7 2 2 6 2 8 0l33-34c2-2 2-5 0-7-1-1-2-1-3-1z m27-236c-3 0-5 2-5 5l0 48c0 3 2 5 5 5 3 0 5-2 5-5l0-48c0-3-2-5-5-5z m-61 24c-1 0-3 1-4 2-2 2-2 5 0 7l34 34c2 2 5 2 7 0 2-2 2-6 0-8l-33-33c-1-1-3-2-4-2z m123 0c-2 0-3 1-4 2l-34 33c-2 2-2 6 0 8 2 2 5 2 7 0l34-34c2-2 2-5 0-7-1-1-2-2-3-2z"/>
<glyph glyph-name="frustrated-hand-shake" unicode="&#118;" d="M332 325c-2 0-5-1-8-2-1 13-11 22-24 22-5 0-11-2-15-5-3 9-12 15-22 15-11 0-23-6-26-18-4 3-9 5-14 5-14 0-24-11-24-26l0-13c-3-2-7-5-13-10-18-17-24-57-3-89 21-32 53-50 91-50 43 0 57 22 69 44 10 21 10 103 10 106 0 11-9 21-21 21z m1-123c-10-20-22-38-59-38-34 0-64 16-83 46-13 19-18 58 2 76 2 2 7 4 7 4l-1-35c0-5 2-7 5-7 3 0 4 2 4 7l0 61c0 8 5 16 14 16 10 0 13-9 13-16 0-3 3-5 5-5 3 0 6 2 6 5l0 14c0 11 10 15 17 15 7 0 13-6 13-13l0-19c0-3 3-5 6-5 2 0 5 2 5 5l0 8c0 8 6 14 13 14 8 0 14-6 14-14l0-22c0-3 2-5 5-5 3 0 5 2 5 5l0 13c2 1 6 2 8 2 6 0 11-4 11-10 0-23-2-86-10-102z m-122-77c-1 0-2 1-2 1-25 12-46 30-62 55-34 51-21 114 10 143 3 28 21 50 47 58 2 0 5-1 6-4 1-2-1-5-3-6-22-7-38-27-40-51l0-2-3-2c-28-26-40-83-8-131 15-23 34-40 57-51 3-1 4-4 2-7 0-2-2-3-4-3z m-8-18c-1 0-2 0-3 0-28 14-52 35-70 62-34 52-31 124 8 165 6 31 28 56 57 66 2 1 5 0 6-3 1-3 0-5-3-6-26-9-45-32-50-60l-1-2-1-1c-36-38-39-105-7-153 16-26 39-46 66-58 2-2 3-5 2-7-1-2-2-3-4-3z m126 17c-2 0-3 1-4 2-2 3-1 6 2 7 24 13 36 34 45 50 12 25 14 87 14 121 0 24-16 44-39 51l-2 0-1 2c-4 5-9 9-14 12-3 2-3 5-2 7 2 3 5 3 7 2 6-4 11-8 16-14 27-8 45-32 45-60 0-35-2-99-15-125-9-18-23-41-49-55-1 0-2 0-3 0z m9-19c-2 0-4 1-5 3-1 2 0 5 2 7 30 15 46 41 55 59 11 22 16 66 16 130 0 30-19 58-48 69l-1 0-1 1c-5 5-11 10-17 14-3 1-4 4-2 7 1 2 4 3 7 2 7-4 13-9 19-15 32-13 53-44 53-78 0-66-5-111-17-134-10-20-27-48-59-65-1 0-2 0-2 0z m-17 38c-2 0-4 0-5 2-1 3 0 6 2 7 18 10 28 26 35 40 9 18 12 70 12 112 0 17-13 31-30 32l-2 1-2 2c-2 5-6 9-10 12-3 1-3 4-2 7 2 2 5 3 8 1 5-3 9-8 12-13 21-3 36-21 36-42 0-27-1-92-13-116-7-15-18-34-39-45 0 0-1 0-2 0z m-102 1c-1 0-1 0-2 1-21 10-39 26-53 47-27 41-18 94 8 118 1 1 2 3 5 4l0 2c0 24 15 42 36 47 3 1 6-1 6-4 1-3-1-5-4-6-16-4-27-18-27-37l0-7-3-1c-2-2-4-4-7-6-22-20-30-67-5-104 13-20 29-35 48-44 3-1 4-4 3-7-1-2-3-3-5-3z"/>
<glyph glyph-name="wolverine" unicode="&#119;" d="M329 219c-2 0-5-1-8-2-1 12-10 21-21 22l0 200c0 3-2 5-5 5-3 0-5-2-5-5l0-201c-3-1-6-2-8-4-3 8-10 14-19 15l0 207c0 3-2 5-5 5-3 0-5-2-5-5l0-207c-9-2-17-8-20-18-2 2-5 3-8 4l0 204c0 3-2 5-5 5-3 0-5-2-5-5l0-203c-11-2-19-12-19-26l0-13c-3-2-8-5-13-10-19-16-25-57-4-89 22-32 54-50 91-50 44 0 58 22 69 44 11 21 11 103 11 106 0 11-10 21-21 21z m1-122c-11-21-22-39-60-39-33 0-63 17-82 46-13 19-19 58 1 76 2 2 7 5 7 5l0-36c0-4 1-7 4-7 4 0 5 2 5 7l0 61c0 7 3 13 10 15l0-62c0-3 2-6 5-6 3 0 5 3 5 6l0 61c5-3 7-9 7-14 0-2 2-5 5-5 3 0 5 3 5 5l0 14c0 8 5 12 11 14l0-75c0-3 2-6 5-6 3 0 5 3 5 6l0 76c6-2 10-7 10-13l0-19c0-3 2-5 5-5 3 0 5 2 5 5l0 8c0 5 3 10 7 12l0-64c0-3 2-6 5-6 3 0 5 3 5 6l0 66c6-2 11-7 11-14l0-22c0-3 2-5 5-5 3 0 5 2 5 5l0 13c2 1 5 3 8 3 5 0 11-5 11-11 0-23-2-86-10-101z"/>
<glyph glyph-name="doubletap" unicode="&#120;" d="M413 296c0 26-16 51-41 61-8 24-28 41-52 45-13 16-32 25-52 25-18 0-36-7-48-21-35-1-63-31-63-66 0-29 18-53 44-63l1-23c-12 8-25 13-40 13-37 0-67-30-67-67 0-37 30-66 67-66 7 0 14 1 20 3 1-2 3-4 5-5l4-5c24-24 45-45 86-45 43 0 58 22 69 44 9 19 10 35 13 69 0 4 1 9 1 15 1 7 1 14 2 21 29 7 51 33 51 65z m-270-119c0 0 4-5 11-12-16 4-28 18-28 35 0 20 16 36 36 36 19 0 35-16 36-35l-15 15c-5 6-12 9-20 9-7 0-14-3-19-9-11-10-11-28-1-39z m19-33c-31 0-56 25-56 56 0 31 25 56 56 56 16 0 30-6 40-16l0-17c-8 14-23 23-40 23-25 0-46-20-46-46 0-25 21-46 46-46 1 0 2 0 3 0 2-3 5-6 9-9-4-1-8-1-12-1z m188 67c-1-6-1-11-1-16-3-32-4-47-12-64-11-21-22-38-60-38-37 0-56 18-79 42l-4 4c-1 1-1 1-2 2-3 2-5 5-8 7-2 3-5 6-7 8-2 2-3 3-4 5-1 0-1 0-1 0-1 1-2 3-3 4-11 11-18 19-18 19-4 3-5 8-5 13 0 4 1 9 5 12 3 4 8 5 12 5 5 0 10-1 13-5l21-21 7-8 0-1c2-1 4-2 6-1 2 1 3 3 3 5l-1 42 0 19-1 52 0 6-1 38c0 9 6 15 14 15 8 0 13-6 13-16l1-31 0-2 1-20 0-2 2-41c0-2 2-5 5-5 2 0 5 3 5 5l1 42 0 7 0 12 0 2 2 56c0 8 6 14 13 14 7 0 13-6 13-14l0-107c0-3 2-7 5-7 3 0 5 3 5 6l2 40 0 1 2 43c0 8 7 14 15 14 7 0 14-6 14-13l-3-93 0-5-1-13c0-3 2-6 5-6 3 0 5 2 5 5l1 4 0 4 2 17 1 11 3 34c0 0 0 0 0 0 0 6 5 11 10 11 6 0 11-5 11-10 0-2-2-17-3-37 0-1 0-2 0-3-1-8-2-17-2-26-1-1-1-2-1-3 0-6-1-12-1-18z m-1 120c19-1 33-17 33-35 0-14-7-25-18-31 2 19 3 32 3 32 0 0 0 0 0 0 0 12-9 21-21 21-5 0-10-2-14-6l1 26c0 14-11 24-24 24-8 0-14-3-19-8l0 8c0 14-10 24-23 24-13 0-23-10-23-24l-1-7c-4 6-11 11-19 11-14 0-24-11-24-26l0-27c-7 6-12 16-12 27 0 20 16 36 35 36 3 0 5 0 8-1 2 0 4 1 5 3 7 11 19 18 32 18 14 0 27-8 32-21 1-2 3-3 6-3 1 0 2 0 3 0 20 0 36-16 36-35 0 0 0 0 0-1 0-2 2-4 4-5z m14-89c0 4 0 7 0 11 17 7 29 23 29 43 0 22-16 41-37 45-3 23-22 42-46 42 0 0-1 0-1 0-8 14-23 24-40 24-16 0-30-8-39-21-2 0-4 0-6 0-25 0-46-21-46-46 0-17 10-32 24-40l0-11c-20 8-34 28-34 51 0 30 25 56 55 56 2 0 3 1 4 2 11 12 26 19 42 19 18 0 34-8 45-23 1-1 2-1 3-2 23-3 41-18 47-40 0-2 2-3 3-4 22-8 37-29 37-52 0-26-17-47-40-54z"/>
<glyph glyph-name="drag-down" unicode="&#121;" d="M242 410l21-21c2-2 5-2 7 0l20 21c2 1 2 4 1 6 0 2-2 4-4 4l-14 0 0 33c0 3-3 7-7 7-3 0-7-4-7-7l0-33-13 0c-2 0-4-2-5-4-1-2 0-5 1-6z m-48-34l21-21c2-2 5-2 7 0l21 21c1 1 1 4 1 6-1 2-3 4-5 4l-14 0 0 67c0 3-3 7-7 7-3 0-6-4-6-7l0-67-14 0c-2 0-4-2-5-4-1-2 0-5 1-6z m96 0l20-21c2-2 6-2 8 0l20 21c2 1 2 4 1 6-1 2-2 4-4 4l-14 0 0 67c0 3-4 7-7 7-3 0-7-4-7-7l0-67-13 0c-3 0-4-2-5-4-1-2-1-5 1-6z m44-34l21-21c2-2 5-2 7 0l21 21c1 1 1 4 1 6-1 2-3 4-5 4l-14 0 0 101c0 3-3 7-7 7-3 0-6-4-6-7l0-101-14 0c-2 0-4-2-5-4-1-2 0-5 1-6z m-204-103l20-20c2-2 5-2 7 0l21 20c1 2 2 4 1 6-1 2-3 4-5 4l-14 0 0 132c0 3-3 7-6 7-4 0-7-4-7-7l0-132-14 0c-2 0-4-2-5-4 0-2 0-4 2-6z m147-191c-41 0-62 21-86 45l-4 4c-26 26-44 46-44 46-10 11-10 28 1 39 5 6 12 9 19 9 8 0 15-3 20-9l20-20-3 144c0 15 10 26 24 26 8 0 15-5 19-11l1 7c0 14 10 24 23 24 13 0 23-10 23-24l0-8c5 5 11 8 19 8 13 0 24-11 24-24l-1-26c4 3 9 6 14 6 12 0 21-9 21-21 0 0 0 0 0 0 0 0-3-43-7-87 0-6-1-11-1-16-3-34-4-49-13-68-11-22-26-44-69-44z m-114 132c-4 0-9-2-12-5-4-3-5-8-5-12 0-5 1-10 5-13 0 0 18-20 43-45l4-4c23-24 42-43 79-43 38 0 49 18 60 39 8 17 9 32 12 64 0 5 0 10 1 16 3 42 6 83 7 86 0 6-5 10-11 10-5 0-10-4-10-10 0 0 0 0 0 0l-7-70c0-3-2-5-5-5-3 0-5 3-5 5l4 111c0 8-7 14-14 14-8 0-15-7-15-14l-4-84c0-3-2-5-5-5 0 0 0 0 0 0-3 3-5 3-5 6l0 107c0 8-6 14-13 14-7 0-13-6-13-14l-3-118c0-3-2-5-5-5-3 0-5 2-5 5l-4 96c0 9-5 15-13 15-8 0-14-6-14-15l3-157c0-2-1-4-3-5-2-1-4 0-6 1l-28 30c-3 3-8 5-13 5z"/>
<glyph glyph-name="drag-left" unicode="&#122;" d="M177 104c-9 0-20 2-30 6-39 14-52 41-66 72l-3 5c-15 33-25 58-25 58-3 6-3 14-1 21 3 7 8 13 15 16 4 2 8 3 12 3 11 0 21-7 25-17l12-26 46 137c4 10 13 17 23 17 3 0 5 0 8-1 7-3 11-7 14-14 0-1 1-2 1-3l3 7c3 9 12 15 22 15 3 0 5 0 8-1 6-2 11-7 13-12 3-6 3-12 1-18l-3-8c6 3 13 4 20 1 6-2 11-6 14-12 2-6 3-12 0-18l-9-25c4 2 10 3 15 1 11-4 16-16 12-27 0 0 0 0 0 0 0 0-17-39-36-79-2-5-4-10-6-14-14-32-21-46-36-60-12-12-27-24-49-24z m-98 170c-3 0-5 0-8-1-4-2-7-6-9-10-2-5-1-10 1-14 0 0 10-25 25-57l2-6c14-30 25-54 60-66 10-4 19-6 27-6 19 0 31 10 42 21 14 13 20 27 34 57 1 4 4 9 6 14 17 39 35 76 36 79 2 5-1 11-6 13-1 1-3 1-4 1-4 0-8-3-9-7 0 0 0 0-1 0l-30-64c-1-2-4-3-7-2-2 1-3 4-2 6l41 103c1 4 1 7-1 11-1 3-4 5-7 7-2 0-4 1-5 1-6 0-12-4-14-9l-32-78c-1-2-4-3-7-2-3 1-4 4-3 6l37 101c1 4 1 7 0 11-2 3-4 5-7 6-2 1-3 1-5 1-6 0-11-3-13-9l-43-110c-1-2-4-4-6-3-3 1-4 4-3 7l29 91c2 4 2 8 0 12-1 3-4 6-7 7-8 3-16-2-18-10l-51-148c-1-2-3-4-5-4-2 0-4 1-5 3l-16 38c-3 6-9 10-16 10z m373-83l-56 0 0 11c0 2-1 4-2 5-2 0-4 0-5-2l-21-19c-2-2-2-4 0-6l21-19c1-2 3-2 5-1 1 0 2 2 2 4l0 13 56 0c3 0 7 4 7 7 0 4-4 7-7 7z m0 191l-56 0 0 11c0 2-1 4-2 5-2 0-4 0-5-1l-21-19c-2-2-2-5 0-7l21-19c1-2 3-2 5-1 1 0 2 2 2 4l0 14 56 0c3 0 7 3 7 6 0 4-4 7-7 7z m0-95l-56 0 0 10c0 2-1 4-2 5-2 1-4 0-5-1l-21-19c-2-2-2-5 0-7l21-19c1-1 3-2 5-1 1 1 2 3 2 5l0 13 56 0c3 0 7 3 7 7 0 3-4 7-7 7z m0-48l-90 0 0 11c0 2-1 4-3 4-2 1-3 1-4-1l-21-19c-2-2-2-5 0-7l21-19c1-1 3-1 4-1 2 1 3 3 3 5l0 13 90 0c3 0 7 4 7 7 0 4-4 7-7 7z m0 96l-90 0 0 10c0 2-1 4-3 5-2 1-3 0-4-1l-21-19c-2-2-2-5 0-7l21-19c1-1 3-2 4-1 2 1 3 3 3 5l0 13 90 0c3 0 7 3 7 7 0 3-4 7-7 7z"/>
<glyph glyph-name="drag-right" unicode="&#65;" d="M360 108c-22 0-42 9-63 19l-5 2c-33 16-56 28-57 28-6 3-11 9-14 16-2 7-2 15 1 21 5 10 15 17 25 17 5 0 9-1 12-3l26-13-52 135c-3 6-3 13-1 19 3 6 8 11 14 13 8 3 16 1 23-4l-3 8c-2 6-2 12 1 18 2 6 7 10 13 12 3 1 5 1 8 1 10 0 18-6 22-15l3-8c0 0 0 1 1 2 3 5 8 10 14 12 2 1 5 1 8 1 10 0 19-6 22-15l9-26c2 5 6 9 11 11 2 1 5 1 7 1 9 0 16-5 19-13 0 0 0 0 0-1 0 0 12-41 24-84 1-5 3-10 4-14 9-33 14-48 11-69-3-25-9-50-49-65-12-4-23-6-34-6z m-113 92c-6 0-13-4-16-10-2-4-2-9 0-14 1-4 5-8 9-10 0 0 24-12 56-27l5-3c21-10 39-18 59-18 10 0 20 2 30 6 35 13 40 33 43 56 2 19-2 33-11 65-1 4-3 9-4 15-12 41-22 80-23 84-2 5-8 7-13 5-6-1-8-7-7-13 1 0 1 0 1 0l17-68c1-3-1-6-3-6-3-1-6 0-7 3l-34 105c-2 6-7 9-13 9-2 0-3 0-5-1-3-1-6-4-8-7-2-3-2-7-1-10l25-81c1-2-1-5-3-6-3-1-6 0-7 3l-37 101c-2 7-10 11-16 8-4-1-6-3-8-6-1-4-1-7 0-11l37-112c1-2 0-5-3-6-2-1-5 0-6 3l-36 88c-3 9-11 13-18 10-4-1-7-4-8-7-1-4-1-8 0-12l57-146c1-2 0-4-1-6-2-1-4-1-6-1l-37 19c-2 1-5 1-8 1z m-174 165l91 0 0-13c0-2 0-4 2-5 2-1 3 0 5 1l20 19c2 2 2 5 0 7l-20 19c-2 2-3 2-5 1-2-1-2-2-2-4l0-11-91 0c-3 0-6-4-6-7 0-3 3-7 6-7z m0-48l57 0 0-13c0-2 0-4 2-5 2 0 3 0 5 2l20 19c2 2 2 4 0 6l-20 19c-2 2-3 2-5 1-2 0-2-2-2-4l0-11-57 0c-3 0-6-3-6-7 0-3 3-7 6-7z m0-95l57 0 0-13c0-2 0-4 2-5 2-1 3 0 5 1l20 19c2 2 2 5 0 7l-20 19c-2 1-3 2-5 1-2-1-2-3-2-5l0-10-57 0c-3 0-6-4-6-7 0-4 3-7 6-7z m0 48l91 0 0-14c0-2 0-4 2-4 2-1 3-1 5 1l20 19c2 2 2 5 0 7l-20 19c-2 1-3 1-5 1-2-1-2-3-2-5l0-11-91 0c-3 0-6-3-6-7 0-3 3-6 6-6z m0-96l91 0 0-13c0-2 0-4 2-5 2-1 3 0 5 1l20 19c2 2 2 5 0 7l-20 19c-2 1-3 2-5 1-2-1-2-3-2-5l0-10-91 0c-3 0-6-4-6-7 0-4 3-7 6-7z"/>
<glyph glyph-name="drag-up" unicode="&#66;" d="M287 438l-21 20c-2 2-5 2-7 0l-20-20c-2-2-2-3-1-5 0-2 2-3 4-3l14 0 0-52c0-4 3-7 7-7 3 0 7 3 7 7l0 52 13 0c2 0 4 1 5 3 1 2 0 3-1 5z m48-35l-21 21c-2 2-5 2-7 0l-20-21c-2-1-2-3-2-5 1-1 3-2 5-2l14 0 0-35c0-4 3-7 7-7 3 0 6 3 6 7l0 35 14 0c2 0 4 1 5 2 1 2 0 4-1 5z m-96 0l-20 21c-2 2-6 2-8 0l-20-21c-2-1-2-3-1-5 1-1 3-2 5-2l13 0 0-35c0-4 4-7 7-7 3 0 7 3 7 7l0 35 14 0c2 0 3 1 4 2 1 2 1 4-1 5z m140 35l-20 20c-2 2-6 2-8 0l-20-20c-2-2-2-3-1-5 1-2 2-3 5-3l13 0 0-104c0-3 4-6 7-6 3 0 7 3 7 6l0 104 13 0c3 0 4 1 5 3 1 2 1 3-1 5z m-191-79l-21 21c-2 2-5 2-7 0l-20-21c-2-1-2-3-1-5 0-2 2-2 4-2l14 0 0-131c0-4 3-7 7-7 3 0 7 3 7 7l0 131 13 0c2 0 4 0 5 2 1 2 0 4-1 5z m86-311c-42 0-63 21-87 45l-4 4c-25 26-43 46-43 46-11 11-11 28 0 39 5 6 12 9 20 9 7 0 14-3 20-9l19-20-3 144c0 15 11 26 24 26 9 0 16-5 20-11l0 7c0 14 11 24 24 24 13 0 23-10 23-24l0-8c4 5 11 8 18 8 14 0 24-11 24-24l0-26c3 3 8 6 14 6 11 0 21-9 21-21 0 0 0 0 0 0 0 0-4-43-7-87-1-6-1-11-1-16-3-34-4-49-13-68-12-22-26-44-69-44z m-114 132c-5 0-9-2-13-5-3-3-5-8-5-12 0-5 2-10 5-13 1 0 18-20 44-45l4-4c23-24 42-43 79-43 37 0 49 18 59 39 9 17 10 32 12 64 1 5 1 10 1 16 4 42 7 83 7 86 0 6-4 10-10 10-6 0-10-4-10-10 0 0 0 0 0 0l-7-70c0-3-3-5-5-5-3 0-5 3-5 5l3 111c0 8-6 14-14 14-7 0-14-7-14-14l-4-84c0-3-3-5-5-5 0 0 0 0-1 0-2 3-5 3-5 6l0 107c0 8-5 14-12 14-8 0-14-6-14-14l-3-118c0-3-2-2-5-5 0 0 0 0 0 0-2 0-5 2-5 5l-3 96c0 9-6 15-14 15-8 0-14-6-14-15l4-157c0-2-1-4-3-5-2-1-5 0-6 1l-29 30c-3 3-7 5-12 5z"/>
<glyph glyph-name="fling-down" unicode="&#67;" d="M77 172c8-6 17-12 26-17 2-2 5-1 7 2 4 9 8 18 13 26 1 2 2 4 0 5-1 2-3 2-5 2-4-1-8-2-11-3-14 60-12 123 6 182 1 3-1 8-5 9-3 1-7-2-8-5-19-62-21-127-7-189-5-1-10-2-15-4-2 0-3-1-4-3 0-3 1-4 3-5z m197-46c-11 0-21 6-26 16-3 7-3 15-1 22 3 7 8 12 15 15l26 12-137 46c-14 5-20 19-16 31 3 8 9 14 17 15l-7 3c-6 2-10 6-13 12-3 6-3 12-1 18 3 9 12 15 22 15 3 0 5 0 8-1l8-3c0 0 0 1-1 2-2 6-2 12 0 18 3 10 12 16 22 16 3 0 6 0 8-1l25-10c-2 5-3 10-1 15 3 9 11 14 19 14 3 0 5 0 7-1 1 0 1 0 1 0 0 0 39-18 79-37 5-2 10-4 14-6 32-14 46-20 60-36 17-18 33-39 18-79-14-39-41-52-72-66l-5-2c-33-16-58-25-58-26-3-1-7-2-11-2z m-116 148c-6 0-11-4-13-9-1-4-1-8 1-11 1-3 5-6 9-7l148-51c2 0 4-2 4-4 0-3-1-4-3-5l-38-17c-4-2-8-6-9-10-2-4-2-9 0-14 3-6 10-10 17-10 2 0 5 1 7 2 0 0 25 10 57 25l6 2c30 14 54 25 66 60 13 36 1 52-15 69-13 14-27 20-57 34-4 2-9 4-14 6-39 18-76 35-79 36-5 2-11-1-13-6-1-3-1-5 0-8 1-2 3-4 6-5 0 0 0 0 0 0l64-31c2-1 3-4 2-6-1-3-4-4-6-3l-103 41c-2 1-3 1-5 1-6 0-11-4-13-9-1-4-1-8 1-11 1-4 4-6 7-7l78-33c2-1 3-4 2-7-1-2-4-4-6-3l-101 37c-2 1-4 1-5 1-6 0-11-3-12-8-2-4-1-7 0-10 2-4 4-6 8-7l110-43c2-2 4-4 3-7-1-3-4-4-7-3l-91 29c-2 1-4 2-6 2z"/>
<glyph glyph-name="fling-left" unicode="&#68;" d="M137 418c-6-8-11-17-16-26-2-2-1-5 2-7 9-4 18-8 26-13 2-1 3-2 5 0 2 1 2 3 1 5 0 4-1 8-2 11 60 14 122 12 181-6 4-1 9 1 10 5 1 3-2 7-6 8-61 19-126 21-188 7-1 5-3 10-4 15 0 2-1 4-3 4-3 0-4-1-6-3z m165-334c-22 0-42 9-63 19l-5 3c-33 15-56 27-57 27-6 3-11 9-14 16-2 7-2 15 1 22 5 9 15 16 25 16 5 0 8-1 12-3l26-12-52 134c-3 6-3 13-1 19 3 6 8 11 14 13 8 3 16 1 23-3l-3 7c-2 6-2 12 1 18 2 6 7 10 13 12 3 1 5 2 8 2 10 0 18-7 22-16l3-8c0 0 0 1 1 2 3 5 8 10 14 12 2 1 5 1 8 1 10 0 19-6 22-15l9-25c2 4 6 8 11 10 2 1 5 1 7 1 9 0 16-5 19-13 0 0 0 0 0 0 0 0 12-42 24-85 1-5 3-10 4-14 9-33 14-48 11-69-3-25-9-50-49-65-12-4-23-6-34-6z m-113 92c-6 0-13-4-16-10-2-4-2-9 0-13 1-5 5-8 9-10 0-1 24-13 56-28l5-3c21-9 39-18 59-18 10 0 20 2 30 6 35 13 40 33 43 56 2 19-2 33-11 65-1 4-3 9-4 15-12 41-22 80-23 84-2 5-8 7-13 6-6-2-8-8-7-14 0 0 1 0 1 0l17-68c1-3-1-6-3-6-3-1-6 0-7 3l-34 105c-2 6-8 9-13 9-2 0-3 0-5-1-3-1-6-4-8-7-2-3-2-7-1-10l25-81c1-2-1-5-3-6-3-1-6 0-7 3l-37 101c-2 7-10 11-16 9-4-2-6-4-8-7-1-4-1-7 0-11l37-112c1-2 0-5-3-6-2-1-5 0-6 3l-36 89c-3 8-11 12-18 9-4-1-7-3-8-7-1-3-1-8 0-12l57-146c1-2 0-4-1-6-2-1-4-1-6 0l-37 18c-2 1-5 1-8 1z"/>
<glyph glyph-name="fling-right" unicode="&#69;" d="M361 425c6-8 12-17 17-26 1-3 0-6-2-7-10-4-18-9-27-14-2-1-3-1-5 1-2 1-2 3-1 5 1 4 2 7 3 11-60 14-123 12-182-6-4-1-8 1-9 4-1 4 1 8 5 9 61 19 126 21 189 7 1 5 2 10 3 15 1 2 1 3 4 4 2 0 4-1 5-3z m-109-348c-9 0-19 2-30 6-39 14-52 41-66 72l-2 5c-16 33-26 57-26 58-3 6-3 14 0 21 2 7 7 12 14 16 4 1 8 2 12 2 11 0 21-6 25-16l12-26 46 136c4 11 13 18 23 18 3 0 6-1 8-2 7-2 12-7 14-13 0-1 1-2 1-4l3 7c3 10 12 16 22 16 3 0 6 0 8-1 6-2 11-7 13-13 3-5 3-12 1-18l-3-8c6 4 14 4 20 2 6-2 11-7 14-12 2-6 3-13 1-19l-10-24c4 2 10 2 15 0 11-3 16-15 13-26 0 0-1 0-1 0 0 0-17-39-36-80-2-5-4-9-6-14-14-31-20-45-36-60-12-11-27-23-49-23z m-98 170c-3 0-5-1-8-2-4-2-7-5-9-10-1-4-1-9 1-13 0-1 10-25 25-58l2-5c14-30 25-54 60-67 10-3 19-5 27-5 19 0 31 10 42 21 14 13 20 27 34 57 2 4 4 9 6 14 18 38 35 76 36 79 2 5-1 11-6 13-1 0-2 0-4 0-4 0-8-2-9-6 0 0 0-1 0-1l-31-63c-1-3-4-4-7-3-2 1-3 4-2 7l41 103c1 3 1 7-1 10-1 4-4 6-7 7-2 1-4 1-5 1-6 0-12-3-14-9l-32-77c-1-2-4-4-7-3-2 1-4 4-3 7l37 101c1 3 1 7 0 10-1 4-4 6-7 7-2 1-3 1-5 1-6 0-10-4-12-9l-44-110c-1-3-3-4-6-3-3 1-4 4-3 6l29 91c2 5 2 9 0 12-1 4-4 6-7 8-8 2-15-2-18-10l-51-149c-1-2-2-3-5-3-2 0-4 1-4 3l-17 38c-3 6-9 10-16 10z"/>
<glyph glyph-name="fling-up" unicode="&#70;" d="M78 361c8 6 17 12 26 17 2 1 5 0 7-2 4-9 8-18 13-27 1-2 1-3 0-5-1-1-3-1-5-1-4 1-8 2-12 3-13-60-11-123 6-182 2-4-1-8-4-9-3-1-7 1-9 5-18 61-20 127-6 189-5 1-10 2-15 3-2 1-4 2-4 4 0 2 1 4 3 5z m196-235c-11 0-21 6-26 16-3 7-3 15-1 22 3 7 8 12 15 15l26 12-137 46c-14 5-20 19-16 31 3 8 9 14 17 15l-7 3c-6 2-10 6-13 12-3 6-3 12-1 18 3 9 12 15 22 15 3 0 5 0 8-1l8-3c0 0 0 1-1 2-2 6-2 12 0 18 3 10 12 16 22 16 3 0 6 0 8-1l25-10c-2 5-3 10-1 15 3 9 11 14 19 14 3 0 5 0 7-1 1 0 1 0 1 0 0 0 39-18 79-37 5-2 10-4 14-6 32-14 46-20 60-36 17-18 33-39 18-79-14-39-41-52-72-66l-5-2c-33-16-58-25-58-26-3-1-7-2-11-2z m-116 148c-6 0-11-4-13-9-1-4-1-8 1-11 1-3 5-6 9-7l148-51c2 0 4-2 4-4 0-3-1-4-3-5l-38-17c-4-2-8-6-9-10-2-4-2-9 0-14 3-6 10-10 17-10 2 0 5 1 7 2 0 0 25 10 57 25l6 2c30 14 54 25 66 60 13 36 1 52-15 69-13 14-27 20-57 34-4 2-9 4-14 6-39 18-76 35-79 36-5 2-11-1-13-6-1-3-1-5 0-8 1-2 3-4 6-5 0 0 0 0 0 0l64-31c2-1 3-4 2-6-1-3-4-4-6-3l-103 41c-2 1-3 1-5 1-6 0-11-4-13-9-1-4-1-8 1-11 1-4 4-6 7-7l78-33c2-1 3-4 2-7-1-2-4-4-6-3l-101 37c-2 1-4 1-5 1-6 0-11-3-12-8-2-4-1-7 0-10 2-4 4-6 8-7l110-43c2-2 4-4 3-7-1-3-4-4-7-3l-91 29c-2 1-4 2-6 2z"/>
<glyph glyph-name="grab" unicode="&#71;" d="M318 260c-1 0-4-1-7-2-1 13-12 22-24 22-6 0-11-2-15-5-4 9-13 16-23 16-11 0-23-7-26-19-4 3-9 5-14 5-14 0-23-11-23-26l0-13c-3-2-8-5-13-10-19-16-25-57-4-89 21-32 54-50 91-50 43 0 58 22 69 44 11 21 11 103 11 106 0 11-10 21-22 21z m2-122c-11-21-22-39-60-39-34 0-63 17-83 46-12 19-18 58 2 76 2 2 7 5 7 5l0-36c0-4 1-7 4-7 3 0 5 2 5 7l0 61c0 8 4 16 13 16 10 0 14-9 14-16 0-3 2-5 5-5 3 0 5 2 5 5l0 14c0 11 10 15 17 15 8 0 14-6 14-13l0-19c0-3 2-5 5-5 3 0 5 2 5 5l0 8c0 8 6 14 14 14 7 0 13-6 13-14l0-22c0-3 3-5 5-5 3 0 6 2 6 5l0 13c1 1 5 3 7 3 6 0 11-5 11-11 0-23-1-86-9-101z m-68 190c2-2 6-2 8 0l20 20c2 2 2 5 1 7-1 2-2 3-5 3l-13 0 0 50c0 4-4 7-7 7-3 0-7-3-7-7l0-50-13 0c-3 0-4-1-5-3-1-2-1-5 1-6z m-137-70c-2 2-4 2-6 1-2 0-3-2-3-4l0-13-51 0c-4 0-7-3-7-6 0-4 3-7 7-7l51 0 0-15c0-2 1-4 3-5 2-1 4 0 6 1l20 21c2 2 2 5 0 7z m73 38l0 29c0 2-2 3-4 4-2 1-5 1-7-1l-9-10-37 37c-2 2-7 2-9 0-3-3-3-8 0-10l36-36-10-10c-1-2-2-4-1-6 1-1 3-3 5-3l29 0c3 0 7 3 7 6z m156 13l36 36c2 2 2 7 0 10-3 2-8 2-10 0l-36-37-10 10c-1 1-4 2-6 1-2-1-4-3-4-5l0-29c0-2 4-5 7-5l29 0c2 0 3 1 4 3 1 2 1 5-1 6z m110-67l-51 0 0 13c0 2-1 4-3 4-2 1-4 1-6-1l-20-20c-2-2-2-5 0-7l20-21c2-1 4-2 6-1 2 1 3 3 3 5l0 15 51 0c3 0 7 3 7 7 0 3-4 6-7 6z"/>
<glyph glyph-name="press" unicode="&#72;" d="M392 306c0 22-16 41-37 45-3 24-22 42-46 42 0 0-1 0-1 0-8 15-23 24-40 24-16 0-30-8-39-21-2 0-4 0-6 0-25 0-46-20-46-46 0-17 10-31 23-39l2-78c-8 14-23 23-40 23-25 0-46-20-46-46 0-25 21-46 46-46 1 0 2 0 3 0 6-6 14-14 22-22l4-5c24-24 45-44 87-44 43 0 57 22 68 44 10 19 11 34 13 68 0 5 1 10 1 16 1 15 2 29 3 42 17 7 29 24 29 43z m-43-100c-2-33-3-48-12-65-10-21-22-38-59-38-38 0-56 18-80 42l-4 4c-6 6-12 13-18 18-3 3-5 6-7 8-11 11-18 19-18 19-3 3-5 8-5 13 0 4 2 9 5 12 3 4 8 5 12 5 5 0 10-1 13-5l23-24 5-4 1-1c1-2 3-2 5-2 2 1 3 3 3 5l-3 157c-1 9 5 15 13 15 8 0 14-6 14-15l4-96c0-3 2-6 5-6 2 0 5 3 5 6l2 118c0 8 6 14 14 14 7 0 12-6 12-13l1-47 0-10 0-51c0-3 2-7 5-7 3 0 5 3 5 6l2 40 0 4 2 41c0 7 7 13 14 13 8 0 14-6 14-13l-2-68 0-13-1-30c0-3 2-5 5-5 3 0 5 2 5 4l3 31 1 5 3 34c0 1 0 1 0 1 0 6 5 10 10 10 6 0 10-4 10-10 0-2-1-19-3-42 0 0 0 0 0-1-1-13-2-28-3-44 0-5-1-10-1-15z"/>
<glyph glyph-name="press-and-drag" unicode="&#73;" d="M415 372l-10 8c-1 1-2 1-4 1-1-1-2-2-2-3l0-3-13 0 0 14 3 0c1 0 3 0 3 1 1 2 1 3 0 4l-9 10c-1 1-4 1-5 0l-9-11c0-1-1-1 0-3 1-1 2-1 3-1l3 0 0-14-13 0 0 3c0 1-1 2-2 3-1 0-3 0-4-1l-10-8c-1-1-1-2-1-3 0-1 0-2 1-3l10-8c1-1 2-1 2-1 1 0 1 0 2 0 1 1 2 2 2 4l0 4 13 0 0-13-3 0c-1 0-2-2-3-3-1-1 0-3 0-4l9-10c1-1 2-2 3-2 1 0 2 1 2 1l9 11c1 1 1 3 0 4 0 1-2 3-3 3l-3 0 0 13 13 0 0-4c0-2 1-3 2-4 1 0 1 0 2 0 1 0 1 0 2 1l10 8c1 1 1 2 1 3 0 1 0 2-1 3z m-43-66c0 22-16 41-38 45-2 24-22 42-46 42 0 0 0 0 0 0-8 15-24 24-41 24-15 0-30-8-38-21-2 0-4 0-6 0-25 0-46-20-46-46 0-17 9-31 23-39l2-78c-8 14-23 23-40 23-26 0-47-20-47-46 0-25 21-46 47-46 0 0 1 0 2 0 7-6 14-14 23-22l4-5c24-24 45-44 86-44 43 0 58 22 69 44 9 19 10 34 13 68 0 5 0 10 1 16 1 15 2 29 3 42 17 7 29 24 29 43z m-44-100c-2-33-3-48-11-65-11-21-22-38-60-38-37 0-56 18-79 42l-4 4c-7 6-13 13-18 18-3 3-6 6-8 8-11 11-17 19-18 19-3 3-5 8-5 13 0 4 2 9 5 12 4 4 8 5 13 5 5 0 9-1 12-5l24-24 4-4 1-1c2-2 4-2 6-2 2 1 3 3 3 5l-4 157c0 9 6 15 14 15 8 0 13-6 13-15l4-96c0-3 3-6 5-6 3 0 5 3 5 6l3 118c0 8 6 14 13 14 7 0 13-6 13-13l0-47 0-10 0-51c0-3 3-7 5-7 3 0 5 3 6 6l1 40 1 4 2 41c0 7 6 13 14 13 8 0 14-6 14-13l-2-68 0-13-1-30c0-3 2-5 5-5 2 0 5 2 5 4l3 31 0 5 3 34c1 1 1 1 1 1-1 6 4 10 10 10 5 0 10-4 10-10 0-2-1-19-3-42 0 0 0 0 0-1-1-13-2-28-4-44 0-5 0-10-1-15z"/>
<glyph glyph-name="press-and-hold" unicode="&#74;" d="M409 371c0 25-20 46-46 46-21 0-38-14-44-33-7 6-17 9-27 9 0 0-1 0-1 0-8 15-23 24-40 24-16 0-30-8-39-21-2 0-4 0-6 0-25 0-46-20-46-46 0-17 10-31 23-39l2-78c-8 14-23 23-40 23-25 0-46-20-46-46 0-25 21-46 46-46 1 0 2 0 3 0 6-6 14-14 22-22l4-5c24-24 45-44 87-44 43 0 57 22 68 44 10 19 11 34 13 68 0 5 1 10 1 16 1 15 2 29 3 42 17 7 29 24 29 43 0 7-1 13-4 19 22 4 38 23 38 46z m-73-105c0 0 0 0 0-1-1-13-2-28-3-44-1-5-1-10-1-15-2-33-3-48-12-65-10-21-22-38-59-38-38 0-56 18-80 42l-4 4c-6 6-12 13-18 18-3 3-5 6-8 8-10 11-17 19-17 19-3 3-5 8-5 13 0 4 2 9 5 12 3 4 8 5 12 5 5 0 10-1 13-5l23-24 5-4 1-1c1-2 3-2 5-2 2 1 3 3 3 5l-4 157c0 9 6 15 14 15 8 0 14-6 14-15l4-96c0-3 2-6 5-6 2 0 5 3 5 6l2 118c0 8 6 14 14 14 7 0 12-6 12-13l1-47 0-10 0-51c0-3 2-7 5-7 3 0 5 3 5 6l2 40 0 4 2 41c0 7 7 13 14 13 8 0 14-6 14-13l-2-68 0-13-1-30c0-3 2-5 5-5 3 0 5 2 5 4l3 31 1 5 3 34c0 1 0 1 0 1 0 6 4 10 10 10 6 0 10-4 10-10 0-2-1-19-3-42z m27 69c-19 0-35 16-35 36 0 20 16 36 35 36 20 0 36-16 36-36 0-20-16-36-36-36z m23 40l-17 0 0 16c0 3-3 5-5 5-3 0-6-2-6-5l0-22c0-3 3-4 6-4l22 0c3 0 5 3 5 5 0 3-2 5-5 5z"/>
<glyph glyph-name="splay" unicode="&#75;" d="M236 440l13 0 0-52c0-4 4-7 7-7 3 0 7 3 7 7l0 52 13 0c3 0 4 1 5 3 1 2 1 4-1 5l-20 20c-2 2-6 2-8 0l-20-20c-2-2-2-3-1-5 1-2 2-3 5-3z m-99-150c0 4-4 7-7 7l-51 0 0 12c0 2-2 4-4 5-2 1-4 0-5-1l-21-21c-2-2-2-5 0-7l21-20c1-2 3-2 5-1 2 0 4 2 4 4l0 15 51 0c3 0 7 4 7 7z m-14 81c2-1 5-1 6 1l10 9 36-36c3-2 8-2 10 0 2 3 2 8 0 10l-36 36 9 10c2 2 2 5 2 7-1 2-3 5-5 5l-29 0c-3 0-7-6-7-9l0-29c0-2 2-4 4-4z m255 0c2 0 4 2 4 4l0 29c0 3-4 9-7 9l-29 0c-2 0-4-3-5-5-1-2 0-5 1-6l10-10-36-37c-3-2-3-7 0-10 2-2 7-2 9 0l37 36 9-9c2-2 5-2 7-1z m81-79l-20 21c-2 1-4 2-6 1-2-1-3-3-3-5l0-12-51 0c-4 0-7-3-7-7 0-3 3-7 7-7l51 0 0-15c0-2 1-4 3-4 2-1 4-1 6 1l20 20c2 2 2 5 0 7z m-106-19c-10 0-19-6-23-18l-14-37c2 30 6 68 6 73 1 8-1 15-5 20-4 5-9 7-15 7-13 0-22-9-25-23l-4-25 0 48c0 13-10 24-23 24-13 0-23-11-23-24l-2-70c-4 21-8 42-8 48-2 22-16 25-24 25-14 0-24-11-24-25 0-1 0-1 0-1l15-142-18 19c-5 5-12 8-20 8-7 0-14-3-19-8-11-11-11-29-1-39 0 0 18-20 44-46l4-4c24-24 45-45 86-45 70 0 79 70 84 108 1 5 1 9 2 13 3 17 9 37 14 54 6 18 10 32 10 40 0 12-9 20-17 20z m-2-57c-6-18-12-38-15-55-1-4-2-9-2-14-5-39-13-99-74-99-37 0-56 19-79 42l-4 4c-25 26-43 45-43 46-7 7-7 18 0 25 3 3 8 5 12 5 5 0 9-2 13-5l28-30c2-1 4-2 6-1 2 1 3 3 3 5l-17 157c0 9 6 15 14 15 6 0 12-2 14-16 1-14 16-93 17-96 0-2 2-4 5-4 3 0 5 2 5 5l3 118c0 8 6 14 13 14 7 0 13-6 13-14l0-108c0-2 2-5 5-5 2 0 5 2 5 4l14 84c1 6 5 15 15 15 3 0 6-1 7-3 3-3 4-8 3-12-1-9-10-105-10-109 0-3 2-5 4-6 2-1 5 1 6 3l27 70c2 5 6 12 14 12 2 0 7-4 7-10 0-7-5-21-9-37z"/>
<glyph glyph-name="tap" unicode="&#76;" d="M392 306c0 22-16 41-37 45-3 24-22 42-46 42 0 0-1 0-1 0-8 15-23 24-40 24-16 0-30-8-39-21-2 0-4 0-6 0-25 0-46-20-46-46 0-17 10-31 23-39l2-78c-8 14-23 23-40 23-25 0-46-20-46-46 0-25 21-46 46-46 1 0 2 0 3 0 6-6 14-14 22-22l4-5c24-24 45-44 87-44 43 0 57 22 68 44 10 19 11 34 13 68 0 5 1 10 1 16 1 15 2 29 3 42 17 7 29 24 29 43z m-266-96c0 20 16 36 36 36 19 0 35-15 36-35l-15 15c-5 6-12 9-20 9-7 0-14-3-19-9-11-11-11-28 0-39 0 0 4-4 10-12-16 4-28 18-28 35z m223-4c-2-33-3-48-12-65-10-21-22-38-59-38-38 0-56 18-80 42l-4 4c-6 6-12 13-18 18-3 3-5 6-7 8-11 11-18 19-18 19-3 3-5 8-5 13 0 4 2 9 5 12 3 4 8 5 12 5 5 0 10-1 13-5l23-24 5-4 1-1c1-2 3-2 5-2 2 1 3 3 3 5l-3 157c-1 9 5 15 13 15 8 0 14-6 14-15l4-96c0-3 2-6 5-6 2 0 5 3 5 6l2 118c0 8 6 14 14 14 7 0 12-6 12-13l1-47 0-10 0-51c0-3 2-7 5-7 3 0 5 3 5 6l2 40 0 4 2 41c0 7 7 13 14 13 8 0 14-6 14-13l-2-68 0-13-1-30c0-3 2-5 5-5 3 0 5 2 5 4l3 31 1 5 3 34c0 1 0 1 0 1 0 6 5 10 10 10 6 0 10-4 10-10 0-2-1-19-3-42 0 0 0 0 0-1-1-13-2-28-3-44 0-5-1-10-1-15z m15 69c2 19 3 33 3 33 0 0 0 0 0 0 0 11-10 20-21 20-5 0-11-2-14-6l0 27c0 13-10 24-24 24-7 0-14-4-18-9l0 9c0 13-11 23-23 23-14 0-24-10-24-23l0-8c-4 7-11 11-20 11-14 0-24-11-24-26l1-27c-8 7-12 17-12 27 0 20 16 36 35 36 3 0 5 0 8-1 2 0 4 1 5 3 7 11 19 19 32 19 14 0 27-9 32-21 1-2 3-4 6-3 1 0 2 0 3 0 20 0 36-16 36-36 0 0 0 0 0 0 0-3 2-5 4-5 19-2 33-18 33-36 0-13-7-25-18-31z"/>
<glyph glyph-name="wave" unicode="&#77;" d="M126 412c-6-9-11-18-15-27-2-2 0-5 2-7 10-3 19-7 28-12 2 0 3 0 5 1 1 1 1 3 1 5-2 4-3 8-4 12 59 17 122 19 182 5 3-1 8 1 9 5 1 3-2 7-6 8-62 15-128 13-189-5-1 5-3 9-4 14-1 2-2 4-4 4-2 0-4-1-5-3z m236 28c6-9 11-18 15-27 2-3 0-6-2-7-10-4-19-8-28-12-1-1-3-1-5 0-1 1-1 3 0 5 1 4 2 8 3 12-59 17-122 19-182 5-3-1-8 2-9 5 0 3 2 8 6 8 63 15 128 13 189-5 1 5 3 10 4 15 1 2 2 3 4 3 3 0 4 0 5-2z m-101-376c-22 0-42 9-63 19l-5 2c-33 15-56 28-57 28-6 3-11 9-14 16-2 7-2 14 1 21 5 10 15 16 25 16 5 0 9-1 12-2l26-13-52 134c-3 7-3 14 0 19 2 7 7 11 13 14 8 2 16 1 23-4l-3 7c-2 6-2 13 1 18 2 6 7 11 13 13 3 1 5 1 8 1 10 0 18-6 22-16l3-8c0 1 0 2 1 2 3 6 8 10 14 13 2 1 5 1 8 1 10 0 19-6 22-16l9-25c2 5 6 9 11 11 2 1 5 1 7 1 9 0 16-5 19-14 0 0 0 0 0 0 0 0 12-41 24-84 1-5 3-10 4-15 9-33 14-48 11-69-3-24-9-50-49-64-12-4-23-6-34-6z m-113 92c-6 0-13-4-16-10-2-5-2-9 0-14 1-4 5-8 9-10 0 0 24-13 56-28l5-2c21-10 39-18 59-18 10 0 20 2 30 5 35 13 40 33 43 57 2 18-2 33-11 64-1 5-3 10-4 15-12 41-22 81-23 84-2 5-8 8-13 6-6-2-8-8-7-13 1 0 1 0 1-1l17-68c1-2-1-5-3-6-3-1-6 1-7 4l-34 105c-2 5-7 9-13 9-2 0-3-1-5-1-3-1-6-4-8-7-2-4-2-8-1-11l25-80c1-3-1-6-3-6-3-1-6 0-7 3l-37 101c-2 7-10 11-16 8-4-1-6-4-8-7-1-3-1-7 0-10l37-112c1-3 0-6-3-6-2-1-5 0-6 2l-36 89c-3 8-11 13-18 10-4-1-7-4-8-7-1-4-1-8 0-12l57-146c1-2 0-5-1-6-2-1-4-2-6-1l-37 18c-2 1-5 2-8 2z m-1 55c1 0 2 0 3 0 2 0 5 0 8-1-2 4-2 8 0 12 0 0 0 0 0 0l-5 12c-2-3-4-5-5-9-2-5-2-9-1-14z m-15-50c3 2 6 3 10 4-3 3-5 5-5 5-3 4-5 8-5 13 0 5 2 9 5 13 4 3 8 5 13 5 4 0 9-2 12-5l11-11-9 22c-4 3-9 4-14 4-8 0-15-3-20-8-11-11-11-29 0-40 0 0 1-1 2-2z m77 180c0 1 1 1 1 1 4 0 7-2 9-5 3 3 6 5 9 6-4 6-11 9-18 9-4 0-7-1-10-2 4-2 7-5 9-9z m124-37c-6 0-11-2-15-6l1 27c0 13-11 24-24 24-7 0-14-4-19-9l0 9c0 13-10 23-23 23-13 0-23-10-23-23l0-5c2 1 4 1 7 1 1 0 2 0 3 0l0 4c0 7 6 13 13 13 8 0 13-6 13-13l0-41 2-4c2 5 6 9 11 11 0 0 1 0 1 0l1 10c0 7 7 13 14 13 8 0 14-6 14-13l-1-32c2-9 7-24 11-41l4 31c0 0 0 1 0 1 0 5 4 10 10 10 5 0 10-5 10-10 0-3-3-44-7-87 0-1 0-3 0-4 4-13 6-24 8-33 0 6 1 13 1 21 1 5 1 10 1 15 4 45 7 87 7 87 0 0 0 1 0 1 0 11-9 20-20 20z m55-37c-5 2-11 1-16-1l10 25c2 6 2 12-1 18-2 6-7 10-13 12-7 3-15 2-21-1l3 8c2 6 2 12 0 18-3 6-7 10-13 12-3 1-6 2-8 2-10 0-18-6-22-15 3-1 6-4 8-7l1 2c2 6 7 9 13 9 1 0 3 0 4-1 3-1 6-3 7-6 2-3 2-7 0-11l-9-27c0 0 1 0 2 0 4 0 8-1 12-3l1 3c2 5 7 9 13 9 2 0 4-1 5-1 4-2 6-4 8-7 1-4 2-7 0-11l-22-57c-1-11-2-24-3-37l24 51c0 0 0 0 0 0 2 4 6 7 10 7 1 0 2 0 3-1 6-2 8-8 6-13-1-3-18-40-36-79-2-5-4-10-6-14-1-3-2-5-3-7 0-3 0-6-1-10-1-9-2-18-6-27 6 10 11 22 19 40 2 4 4 9 7 14 18 40 36 79 36 79 0 0 0 0 0 1 4 10-2 22-12 26z"/>
<glyph glyph-name="doubletap-1" unicode="&#78;" d="M348 354c-7 27-30 47-58 51-13 14-31 22-49 22-17 0-33-6-46-18 0 0-1 0-2 0-37 0-66-29-66-66 0-28 18-52 43-61l1-51c-2-2-7-5-12-9-19-17-25-58-4-90 24-35 51-50 92-50 43 0 57 22 68 44 10 19 11 35 13 69 1 4 1 9 1 15 1 7 1 14 2 21 29 7 51 33 51 65 0 24-13 46-34 58z m-179-38c-7 7-12 17-12 27 0 20 16 36 36 36 3 0 6 0 9-1 2 0 4 0 5 2 7 10 18 16 30 16 14 0 27-8 33-21 1-2 3-3 5-3 3 0 5 0 6 0 20 0 36-16 36-35 0 0 0-1 0-1 0-2 2-5 5-5 17-3 29-18 29-35 0-14-7-25-17-31 1 19 2 32 2 32 0 0 0 0 0 0 0 12-9 21-20 21-6 0-11-2-15-6l1 26c0 14-11 24-24 24-7 0-14-3-19-8l0 8c0 14-10 24-23 24-13 0-23-10-23-24l0-7c-5 6-12 11-20 11-14 0-24-11-24-26z m150-105c0-6-1-11-1-16-2-32-3-47-12-64-10-21-22-38-59-38-38 0-62 13-83 45-13 19-18 58 2 76 2 2 4 3 6 5l0-37c0-3 3-6 6-6 2 0 5 3 5 6l-3 97 0 10-1 51c0 9 6 15 14 15 8 0 14-6 14-16l1-49 1-11 1-36c0-2 2-5 5-5 3 0 5 3 5 6l1 40 0 12 2 66c0 8 6 14 13 14 8 0 13-6 13-14l0-107c0-3 2-7 5-7 3 0 5 3 5 6l1 6 1 21 3 57c0 8 6 14 14 14 8 0 14-6 14-13l-3-93 0-11-1-7c0-3 2-6 5-6 3 0 5 2 6 5l0 4 1 11 5 55c0 0 0 0 0 0 0 6 5 11 11 11 5 0 10-5 10-10 0-3-2-28-5-58 0-4 0-7 0-11-1-6-1-12-2-18z m13 31c0 4 0 7 1 11 17 7 29 23 29 43 0 21-14 39-35 44-1 24-21 43-46 43-1 0-2 0-3 0-8 14-24 24-41 24-14 0-28-7-36-18-3 0-6 1-8 1-26 0-46-21-46-47 0-17 9-31 23-39l0-11c-19 8-33 28-33 50 0 31 25 56 56 56 1 0 3 0 4 0 2 0 3 0 4 1 11 11 25 17 40 17 16 0 32-7 43-20 0-1 2-2 3-2 25-2 46-21 52-46 0-1 1-3 2-3 19-10 31-29 31-50 0-26-17-47-40-54z"/>
<glyph glyph-name="drag-down-1" unicode="&#79;" d="M222 410l20-21c2-2 5-2 7 0l21 21c1 1 2 4 1 6-1 2-3 4-5 4l-13 0 0 33c0 3-4 7-7 7-4 0-7-4-7-7l0-33-14 0c-2 0-4-2-4-4-1-2-1-5 1-6z m-48-34l20-21c2-2 6-2 8 0l20 21c2 1 2 4 1 6-1 2-2 4-5 4l-13 0 0 67c0 3-4 7-7 7-3 0-7-4-7-7l0-67-14 0c-2 0-3-2-4-4-1-2-1-5 1-6z m95 0l21-21c2-2 5-2 7 0l21 21c1 1 2 4 1 6-1 2-3 4-5 4l-14 0 0 67c0 3-3 7-6 7-4 0-7-4-7-7l0-67-14 0c-2 0-4-2-5-4 0-2 0-5 1-6z m45-34l20-21c2-2 6-2 8 0l20 21c1 1 2 4 1 6-1 2-3 4-5 4l-13 0 0 101c0 3-4 7-7 7-3 0-7-4-7-7l0-101-14 0c-2 0-3-2-4-4-1-2-1-5 1-6z m-57-294c-41 0-68 15-91 50-21 32-15 73 3 89 6 5 10 8 13 9l-3 110c0 15 10 26 24 26 9 0 16-5 20-11l0 7c0 14 10 24 24 24 13 0 23-10 23-24l0-8c4 5 11 8 18 8 14 0 24-11 24-24l0-26c3 3 8 6 14 6 11 0 20-9 20-21 0 0 0 0 0 0 0 0-3-43-6-87-1-6-1-11-2-16-2-34-3-49-13-68-11-22-25-44-68-44z m-75 136c-2-1-4-2-6-4-20-18-14-57-2-76 22-32 46-46 83-46 37 0 49 18 59 39 9 17 10 32 12 64 1 5 1 10 1 16 4 42 7 83 7 86 0 6-4 10-10 10-6 0-10-4-10-10 0 0 0 0 0 0l-7-70c0-3-3-5-6-5-2 0-4 3-4 5l3 111c0 8-6 14-14 14-7 0-14-7-14-14l-4-85c0-2-2-5-5-5-3 0-6 4-6 7l0 107c0 8-5 14-12 14-8 0-14-6-14-14l-3-119c0-2-2-5-5-5-2 0-5 3-5 5l-3 96c0 10-6 16-14 16-8 0-14-6-14-15l4-158c0-3-3-6-5-6-2 0-5 3-5 6z"/>
<glyph glyph-name="drag-left-1" unicode="&#80;" d="M185 105c-9 0-19 2-30 6-38 13-58 37-68 78-9 37 10 73 34 82 6 3 11 4 14 5l35 103c4 11 13 18 24 18 2 0 5-1 8-2 6-2 11-7 14-13 0-1 0-3 1-4l2 7c4 10 13 16 23 16 2 0 5-1 8-2 12-4 18-17 13-30l-3-8c6 3 14 4 21 2 6-2 11-7 13-13 3-5 3-12 1-18l-10-25c5 3 11 3 16 1 5-2 9-5 11-10 3-5 3-11 1-16 0 0 0 0 0 0 0 0-18-39-36-80-3-5-5-10-7-14-14-31-20-45-35-60-13-12-27-23-50-23z m-54 159c-1 0-4-1-7-2-24-10-33-49-27-71 9-38 27-58 62-71 9-3 18-5 26-5 19 0 31 10 43 21 14 13 20 26 33 56 2 5 4 9 6 14 18 39 35 77 37 80 0 2 0 5-1 7-1 3-3 5-6 6-5 1-11-1-13-7 0 0 0 0 0 0l-30-63c-1-3-4-4-7-3-2 1-4 4-3 7l41 103c2 3 2 7 0 10-2 3-4 6-8 7-1 1-3 1-5 1-6 0-11-4-13-9l-33-77c-1-3-4-4-6-3-3 1-4 4-3 7l37 101c2 7-1 14-8 17-1 0-3 1-4 1-6 0-11-4-13-9l-43-110c-1-3-4-4-7-3-2 1-4 4-3 6l30 91c1 4 1 9 0 12-1 4-4 6-8 7-7 3-15-1-18-9l-50-149c-1-3-4-4-7-3-3 1-4 4-3 6l0 1z m297-25l-90 0 0 11c0 2-1 4-2 4-2 1-4 1-5-1l-21-19c-2-2-2-5 0-7l21-19c1-1 3-1 5-1 1 1 2 3 2 5l0 13 90 0c4 0 7 4 7 7 0 4-3 7-7 7z m0 48l-56 0 0 10c0 2 0 4-2 5-2 1-4 0-5-1l-20-19c-2-2-2-5 0-7l20-19c1-1 3-2 5-1 2 1 2 3 2 5l0 13 56 0c4 0 7 3 7 7 0 3-3 7-7 7z m0 95l-56 0 0 11c0 2 0 4-2 5-2 0-4 0-5-1l-20-19c-2-2-2-5 0-7l20-19c1-2 3-2 5-1 2 0 2 2 2 4l0 14 56 0c4 0 7 3 7 6 0 4-3 7-7 7z m0-47l-90 0 0 10c0 2-1 4-2 5-2 1-4 0-5-1l-21-19c-2-2-2-5 0-7l21-19c1-1 3-2 5-1 1 1 2 3 2 5l0 13 90 0c4 0 7 3 7 7 0 3-3 7-7 7z"/>
<glyph glyph-name="drag-right-1" unicode="&#81;" d="M337 107c-21 0-42 7-63 23-31 23-39 63-27 85 3 7 6 11 8 13l-39 102c-6 14 0 28 13 32 8 3 16 2 23-3l-3 7c-2 6-2 12 1 18 2 6 7 10 13 12 3 1 5 2 8 2 10 0 18-6 22-16l3-8c2 6 8 12 15 14 2 1 5 2 8 2 10 0 19-7 22-16l8-25c3 5 7 9 12 10 2 1 5 2 7 2 9 0 16-6 19-14 0 0 0 0 0 0 0 0 12-41 24-84 1-6 3-11 4-15 9-33 14-48 11-69-3-24-9-50-49-64-15-6-28-8-40-8z m-78 110c-1-2-2-4-3-6-13-24 6-59 24-72 20-15 38-22 57-22 11 0 23 2 36 7 35 13 40 33 43 56 2 19-2 34-11 65-1 5-3 10-4 15-12 41-23 81-23 84-2 5-8 8-13 6-6-2-9-8-7-13 0 0 1-1 1-1l17-68c1-3-1-5-3-6-3-1-6 1-7 3l-34 106c-2 5-8 9-13 9-2 0-3-1-5-1-7-3-11-11-9-18l25-80c1-3-1-6-3-7-3-1-6 1-7 3l-37 101c-2 8-10 11-16 9-4-1-6-4-8-7-1-3-1-7 0-10l37-112c1-3 0-6-3-7-2-1-5 1-6 3l-36 89c-3 8-11 12-18 10-8-3-11-11-8-19l57-147c1-2 0-5-3-6-3-1-6 0-7 3z m-169 152l91 0 0-14c0-2 0-4 2-4 2-1 3-1 5 1l20 19c2 2 2 5 0 7l-20 19c-2 1-3 1-5 1-2-1-2-3-2-5l0-11-91 0c-3 0-6-3-6-7 0-3 3-6 6-6z m0-48l57 0 0-13c0-2 0-4 2-5 2-1 3 0 5 1l20 19c2 2 2 5 0 7l-20 19c-2 1-3 2-5 1-2-1-2-3-2-5l0-10-57 0c-3 0-6-4-6-7 0-4 3-7 6-7z m0-96l57 0 0-13c0-2 0-4 2-5 2 0 3 0 5 1l20 19c2 2 2 5 0 7l-20 19c-2 2-3 2-5 1-2 0-2-2-2-4l0-11-57 0c-3 0-6-3-6-7 0-3 3-7 6-7z m0 48l91 0 0-13c0-2 0-4 2-5 2-1 3 0 5 1l20 19c2 2 2 5 0 7l-20 19c-2 1-3 2-5 1-2-1-2-3-2-5l0-10-91 0c-3 0-6-4-6-7 0-4 3-7 6-7z"/>
<glyph glyph-name="drag-up-1" unicode="&#82;" d="M270 438l-21 20c-2 2-5 2-7 0l-20-20c-2-2-2-3-1-5 0-2 2-3 4-3l14 0 0-52c0-4 3-7 7-7 3 0 7 3 7 7l0 52 13 0c2 0 4 1 5 3 1 2 0 3-1 5z m48-35l-21 21c-2 2-5 2-7 0l-21-21c-1-1-1-3-1-5 1-1 3-2 5-2l14 0 0-35c0-4 3-7 7-7 3 0 6 3 6 7l0 35 14 0c2 0 4 1 5 2 1 2 0 4-1 5z m-96 0l-20 21c-2 2-6 2-8 0l-20-21c-2-1-2-3-1-5 1-1 2-2 5-2l13 0 0-35c0-4 4-7 7-7 3 0 7 3 7 7l0 35 13 0c3 0 4 1 5 2 1 2 1 4-1 5z m140 35l-20 20c-2 2-6 2-8 0l-20-20c-2-2-2-3-1-5 1-2 2-3 4-3l14 0 0-104c0-3 4-6 7-6 3 0 7 3 7 6l0 104 13 0c2 0 4 1 5 3 1 2 0 3-1 5z m-105-390c-41 0-68 15-91 50-21 32-15 73 3 89 6 5 10 8 13 9l-3 110c0 15 10 26 24 26 9 0 16-5 20-11l0 7c0 14 10 24 24 24 13 0 23-10 23-24l0-8c4 5 11 8 18 8 14 0 24-11 24-24l0-26c3 3 8 6 14 6 11 0 20-9 20-21 0 0 0 0 0 0 0 0-3-43-6-87-1-6-1-11-2-16-2-34-3-49-13-68-11-22-25-44-68-44z m-75 136c-2-1-4-2-6-4-20-18-14-57-2-76 22-32 46-46 83-46 37 0 49 18 59 39 9 17 10 32 12 64 1 5 1 10 1 16 4 42 7 83 7 86 0 6-4 10-10 10-6 0-10-4-10-10 0 0 0 0 0 0l-7-70c0-3-3-5-6-5-2 0-4 3-4 5l3 111c0 8-6 14-14 14-7 0-14-7-14-14l-4-85c0-2-2-5-5-5-3 0-6 4-6 7l0 107c0 8-5 14-12 14-8 0-14-6-14-14l-3-119c0-2-2-5-5-5-2 0-5 3-5 5l-3 96c0 10-6 16-14 16-8 0-14-6-14-15l4-158c0-3-3-6-5-6-2 0-5 3-5 6z"/>
<glyph glyph-name="fling-down-1" unicode="&#83;" d="M80 161c9-6 17-11 26-16 3-2 6-1 7 2 4 9 9 18 14 26 1 2 1 3 0 5-1 2-3 2-5 1-4 0-8-1-12-2-14 60-12 122 6 181 1 4-1 9-4 10-3 1-8-2-9-6-19-61-21-126-6-188-5-1-10-3-15-4-2 0-4-1-4-3-1-3 0-4 2-6z m244-21c-31 0-57 18-64 36-3 7-4 12-4 15l-104 35c-6 2-12 7-15 12-3 6-3 13-1 19 3 8 9 13 17 15l-7 3c-6 2-11 6-13 12-3 6-3 12-1 18 3 9 12 15 21 15 3 0 6 0 9-1l8-3c0 0-1 1-1 2-2 5-3 12 0 18 3 10 12 16 22 16 3 0 6-1 8-2l25-9c-3 5-3 10-1 15 3 8 11 14 19 14 3 0 5-1 7-2 0 0 1 0 1 0 0 0 39-17 79-36 5-2 10-4 14-6 31-14 46-21 60-36 17-18 32-39 18-79-14-39-38-59-79-69-6-1-12-2-18-2z m-57 47c1-2 1-4 2-7 6-14 29-30 55-30 6 0 11 1 16 2 38 9 58 27 71 62 13 35 1 52-15 69-13 14-27 20-57 33-4 2-9 5-14 7-39 17-76 35-79 36-6 2-11-1-13-6-1-3-1-6 0-8 1-3 3-4 6-5 0 0 0 0 0-1l64-30c2-1 3-4 2-7-1-2-4-3-6-2l-104 41c-1 0-2 1-4 1-6 0-11-4-13-9-1-4-1-8 1-11 1-4 4-6 7-8l77-32c3-1 4-4 3-7-1-3-4-4-6-3l-101 37c-2 1-4 1-6 1-5 0-10-3-12-8-1-4-1-7 1-11 1-3 4-5 8-7l109-43c3-1 4-4 3-6-1-3-3-4-6-3l-91 29c-9 3-17 0-19-7-2-4-1-8 0-11 2-3 5-6 10-7l148-51c3-1 4-4 3-6-1-3-4-5-6-4l-1 0z"/>
<glyph glyph-name="fling-left-1" unicode="&#84;" d="M137 418c-6-8-11-17-16-26-2-2-1-5 2-7 9-4 18-8 26-13 2-1 3-2 5 0 2 1 2 3 1 5 0 4-1 8-2 11 60 14 122 12 181-6 4-1 9 1 10 5 1 3-2 7-6 8-61 19-126 21-188 7-1 5-3 10-4 15 0 2-1 4-3 4-3 0-4-1-6-3z m159-335c-21 0-41 7-63 23-31 23-39 63-27 85 3 7 6 11 8 13l-39 102c-5 14 0 28 13 32 8 3 16 2 23-3l-3 7c-2 6-2 13 1 18 2 6 7 10 13 13 3 1 5 1 8 1 10 0 18-6 22-16l3-8c2 6 8 12 15 14 2 1 5 2 8 2 10 0 19-6 22-16l9-25c2 5 6 9 11 11 2 0 5 1 7 1 9 0 16-6 19-14 0 0 0 0 0 0 0 0 12-41 24-84 1-5 3-10 4-15 9-33 14-48 11-69-3-24-9-50-49-64-15-6-28-8-40-8z m-78 110c-1-2-2-4-3-6-13-24 6-59 24-72 20-15 38-22 57-22 11 0 23 2 36 7 35 13 40 33 43 56 2 19-2 34-11 65-1 5-3 10-4 15-12 41-22 81-23 84-2 5-8 8-13 6-6-2-8-8-7-13 1 0 1 0 1-1l17-68c1-2-1-5-3-6-3-1-6 1-7 3l-34 106c-2 5-8 9-13 9-2 0-3-1-5-1-7-3-11-11-9-18l25-80c1-3-1-6-3-7-3-1-6 1-7 3l-37 102c-2 7-10 10-16 8-4-1-6-4-8-7-1-3-1-7 0-10l37-112c1-3 0-6-3-7-2-1-5 1-6 3l-36 89c-3 8-11 13-18 10-8-3-11-11-8-19l57-147c1-2 0-5-3-6-3-1-6 0-7 3z"/>
<glyph glyph-name="fling-right-1" unicode="&#85;" d="M351 425c6-8 11-17 17-26 1-3 0-6-3-7-9-4-18-9-26-14-2-1-3-1-5 1-2 1-2 3-1 5 1 4 1 7 2 11-60 14-122 12-181-6-4-1-8 1-9 4-2 4 1 8 5 9 61 19 126 21 188 7 2 5 3 10 4 15 0 2 1 3 4 4 2 0 3-1 5-3z m-108-348c-9 0-19 2-30 6-38 14-58 38-68 78-9 37 10 73 34 83 6 3 11 4 14 4l36 104c3 10 12 17 23 17 2 0 5 0 8-1 6-3 11-7 14-13 0-2 0-3 1-4l3 7c3 9 12 16 22 16 2 0 5-1 8-2 12-4 18-18 13-30l-3-8c6 3 14 4 21 1 6-2 11-6 13-12 3-6 3-12 1-18l-10-25c5 2 11 3 16 1 5-2 9-6 11-11 3-5 3-10 1-15 0-1 0-1 0-1 0 0-18-39-36-79-2-5-5-10-7-14-14-31-20-46-35-60-13-12-27-24-50-24z m-54 160c-1-1-4-1-6-3-25-10-34-48-28-70 9-38 27-58 62-71 9-4 18-5 26-5 19 0 31 9 43 20 14 13 20 27 33 57 2 4 4 9 6 14 18 39 35 76 37 79 0 3 0 6-1 8-1 2-3 4-6 5-5 2-11-1-13-6 0 0 0 0 0 0l-30-64c-1-2-4-3-7-2-2 1-4 4-3 6l42 103c1 4 1 7-1 11-2 3-4 6-8 7-1 0-3 1-5 1-6 0-11-4-13-9l-33-77c-1-3-4-4-6-3-3 1-4 4-3 6l37 101c2 8-1 15-8 18-1 0-3 0-4 0-6 0-11-3-13-9l-43-110c-1-2-4-3-7-2-2 0-4 3-3 6l30 91c1 4 1 8 0 12-1 3-4 6-8 7-7 3-15-1-18-10l-50-148c-1-3-4-4-7-3-3 1-4 3-3 6l0 1z"/>
<glyph glyph-name="fling-up-1" unicode="&#86;" d="M80 350c9 6 17 12 26 17 3 2 6 1 7-2 4-9 9-18 14-27 1-1 1-3 0-4-1-2-3-2-5-2-4 1-8 2-12 3-14-60-12-123 6-182 1-3-1-8-4-9-3-1-8 2-9 5-19 62-21 127-6 189-5 1-10 2-15 3-2 1-4 2-4 4-1 3 0 4 2 5z m244-210c-31 0-57 18-64 36-3 7-4 12-4 15l-104 35c-6 2-12 7-15 12-3 6-3 13-1 19 3 8 9 13 17 15l-7 3c-6 2-11 6-13 12-3 6-3 12-1 18 3 9 12 15 21 15 3 0 6 0 9-1l8-3c0 0-1 1-1 2-2 5-3 12 0 18 3 10 12 16 22 16 3 0 6-1 8-2l25-9c-3 5-3 10-1 15 3 8 11 14 19 14 3 0 5-1 7-2 0 0 1 0 1 0 0 0 39-17 79-36 5-2 10-4 14-6 31-14 46-21 60-36 17-18 32-39 18-79-14-39-38-59-79-69-6-1-12-2-18-2z m-57 47c1-2 1-4 2-7 6-14 29-30 55-30 6 0 11 1 16 2 38 9 58 27 71 62 13 35 1 52-15 69-13 14-27 20-57 33-4 2-9 5-14 7-39 17-76 35-79 36-6 2-11-1-13-6-1-3-1-6 0-8 1-3 3-4 6-5 0 0 0 0 0-1l64-30c2-1 3-4 2-7-1-2-4-3-6-2l-104 41c-1 0-2 1-4 1-6 0-11-4-13-9-1-4-1-8 1-11 1-4 4-6 7-8l77-32c3-1 4-4 3-7-1-3-4-4-6-3l-101 37c-2 1-4 1-6 1-5 0-10-3-12-8-1-4-1-7 1-11 1-3 4-5 8-7l109-43c3-1 4-4 3-6-1-3-3-4-6-3l-91 29c-9 3-17 0-19-7-2-4-1-8 0-11 2-3 5-6 10-7l148-51c3-1 4-4 3-6-1-3-4-5-6-4l-1 0z"/>
<glyph glyph-name="press-1" unicode="&#87;" d="M370 306c0 21-14 39-34 44-2 24-22 43-46 43-1 0-3 0-4 0-8 15-23 24-40 24-15 0-28-7-37-18-2 1-5 1-8 1-25 0-46-21-46-46 0-17 9-32 23-40l2-73c-3-2-7-4-12-9-19-17-25-58-4-89 23-35 50-50 91-50 43 0 58 21 69 43 9 19 10 35 13 69 0 5 0 10 1 15 1 15 2 30 3 43 17 7 29 24 29 43z m-42-85c-1-6-1-11-1-15-3-33-4-48-12-65-11-21-23-38-60-38-37 0-61 13-83 45-12 19-18 58 2 76 3 2 4 4 6 5l1-37c0-2 3-6 5-6 2 0 5 4 5 6l-3 158c0 9 5 15 13 15 8 0 14-6 14-15l3-96c1-3 3-6 6-6 2 0 5 3 5 6l3 118c0 8 5 14 12 14 7 0 12-6 12-14l0-107c0-3 3-7 6-7 3 0 5 3 6 6l4 85c0 7 7 13 15 13 7 0 13-6 13-13l-3-111c0-3 2-5 5-5 2-1 5 1 5 4l7 70c0 0 0 0 0 1 0 5 5 10 10 10 6 0 10-5 11-10-1-4-4-45-7-87z"/>
<glyph glyph-name="press-and-drag-1" unicode="&#88;" d="M388 372l-10 8c-1 1-3 1-4 1-1-1-2-2-2-3l0-3-14 0 0 14 4 0c1 0 2 0 3 1 0 2 0 3-1 4l-8 10c-2 1-4 1-6 0l-8-11c-1-1-1-1-1-3 1-1 2-1 3-1l4 0 0-14-13 0 0 3c0 1-1 2-3 3-1 0-2 0-3-1l-11-8c-1-1-1-2-1-3 0-1 0-2 1-3l10-8c1-1 2-1 3-1 0 0 1 0 1 0 2 1 3 2 3 4l0 4 13 0 0-13-4 0c-1 0-2-2-3-3 0-1 0-3 1-4l8-10c1-1 2-2 3-2 1 0 2 1 3 1l8 11c1 1 1 3 1 4-1 1-2 3-3 3l-4 0 0 13 14 0 0-4c0-2 1-3 2-4 0 0 1 0 1 0 1 0 2 0 3 1l10 8c1 1 1 2 1 3 0 1 0 2-1 3z m-42-66c0 21-14 39-34 44-2 24-22 43-46 43-1 0-2 0-4 0-8 15-23 24-40 24-15 0-28-7-37-18-2 1-5 1-8 1-25 0-46-21-46-46 0-17 10-32 23-40l2-73c-3-2-7-4-12-9-19-17-25-58-4-89 23-35 51-50 91-50 43 0 58 21 69 43 9 19 10 35 13 69 0 5 1 10 1 15 1 15 2 30 3 43 17 7 29 24 29 43z m-42-85c-1-6-1-11-1-15-3-33-4-48-12-65-11-21-22-38-60-38-37 0-61 13-83 45-12 19-17 58 3 76 2 2 4 4 5 5l1-37c0-2 3-6 5-6 2 0 5 4 5 6l-3 158c0 9 5 15 13 15 9 0 14-6 14-15l4-96c0-3 2-6 5-6 2 0 5 3 5 6l3 118c0 8 5 14 12 14 7 0 12-6 12-14l0-107c0-3 3-7 6-7 3 0 5 3 6 6l4 85c0 7 7 13 15 13 7 0 13-6 13-13l-3-111c0-3 2-5 5-5 3-1 5 1 5 4l7 70c0 0 0 0 0 1 0 5 5 10 10 10 6 0 11-5 11-10-1-4-4-45-7-87z"/>
<glyph glyph-name="press-and-hold-1" unicode="&#89;" d="M386 371c0 25-21 46-46 46-20 0-37-13-44-30-7 4-15 6-23 6-1 0-3 0-4 0-8 15-23 24-40 24-15 0-28-7-37-18-2 1-5 1-8 1-25 0-46-21-46-46 0-17 9-32 23-40l2-73c-3-2-7-4-13-9-18-17-24-58-3-89 23-35 50-50 91-50 43 0 58 21 69 43 9 19 10 35 13 69 0 5 0 10 1 15 1 15 2 30 3 43 17 7 29 24 29 43 0 7-1 14-4 20 21 4 37 23 37 45z m-75-150c-1-6-1-11-2-15-2-33-3-48-11-65-11-21-23-38-60-38-37 0-61 13-83 45-12 19-18 58 2 76 2 2 4 4 6 5l1-37c0-2 3-6 5-6 2 0 5 4 5 6l-3 158c0 9 5 15 13 15 8 0 14-6 14-15l3-96c0-3 3-6 6-6 2 0 5 3 5 6l3 118c0 8 5 14 12 14 7 0 12-6 12-14l0-107c0-3 3-7 6-7 3 0 5 3 5 6l5 85c0 7 7 13 15 13 7 0 13-6 13-13l-3-111c0-3 2-5 5-5 2-1 5 1 5 4l7 70c0 0 0 0 0 1 0 5 5 10 10 10 6 0 10-5 10-10 0-4-3-45-6-87z m29 114c-20 0-36 16-36 36 0 20 16 36 36 36 19 0 35-16 35-36 0-20-16-36-35-36z m22 40l-17 0 0 16c0 3-3 5-5 5-3 0-5-2-5-5l0-22c0-3 2-4 5-4l22 0c3 0 5 3 5 5 0 3-2 5-5 5z"/>
<glyph glyph-name="tap-1" unicode="&#90;" d="M369 306c0 21-15 39-35 44-2 24-21 43-46 43-1 0-2 0-4 0-8 15-23 24-40 24-14 0-28-7-36-18-3 1-6 1-8 1-26 0-47-21-47-46 0-17 10-32 24-40l1-73c-3-2-7-4-12-9-19-17-25-58-4-89 23-35 51-50 91-50 44 0 58 21 69 43 9 19 11 35 13 69 0 5 1 10 1 15 1 15 3 30 4 43 17 7 29 24 29 43z m-43-85c0-6-1-11-1-15-3-33-4-48-12-65-11-21-22-38-60-38-37 0-61 13-82 45-13 19-18 58 2 76 2 2 4 4 5 5l1-37c0-2 3-6 5-6 3 0 5 4 5 6l-3 158c0 9 6 15 14 15 8 0 13-6 13-15l4-96c0-3 2-6 5-6 2 0 5 3 5 6l3 118c0 8 6 14 13 14 8 0 13-6 13-14l0-107c0-3 2-7 5-7 3 0 5 3 5 6l5 85c0 7 6 13 14 13 8 0 14-6 14-13l-4-111c0-3 2-5 5-5 3-1 5 1 5 4l7 70c0 0 0 0 0 1 0 5 5 10 11 10 5 0 10-5 10-10 0-4-4-45-7-87z m14 54c2 19 3 32 3 32 0 0 0 0 0 1 0 11-9 20-20 20-6 0-11-2-15-6l1 27c0 13-11 23-24 23-7 0-14-3-19-8l0 8c0 14-10 24-23 24-13 0-23-10-23-23l0-8c-5 7-12 11-20 11-14 0-24-11-24-26l0-23c-7 6-12 16-12 27 0 19 16 36 36 36 2 0 5-1 9-2 2 0 4 1 5 3 7 10 18 16 30 16 14 0 27-9 33-22 1-2 3-3 5-3 2 1 4 1 6 1 20 0 36-16 36-36 0 0 0-1 0-1 0-2 2-4 4-5 18-3 30-18 30-35 0-13-7-25-18-31z"/>
<glyph glyph-name="rotate-01" unicode="&#48;" d="M213 289c1 0 3 0 4 0 6 1 10 4 13 9 2 5 2 10 0 15-1 2-2 3-4 5 2 3 5 6 8 8 26 22 63 18 84-7 1-1 2-2 2-2l-8-7c-1-1-2-3-1-4 0-2 2-3 3-3l22-2c2 0 4 2 4 4l2 21c0 2-1 3-2 4-2 1-3 1-4 0l-7-6-1-1c-1 1-1 2-2 2-25 30-69 34-98 9-5-3-8-7-11-11-7 2-15 3-22 3-6 0-14-2-21-3 3 6 3 13 0 18-3 7-10 11-18 11 1 4 1 8-1 12-3 6-9 10-16 10-2 0-4 0-6-1-1 2-1 4-2 6-2 5-8 9-14 9-2 0-5-1-6-1-3-2-58-28-69-42-12-14-22-31-8-60 13-28 34-36 58-45l4-1c25-9 44-15 44-15 3-1 5-1 7-1 9 0 17 5 20 14 2 5 2 11 0 16-3 5-7 8-12 10l-21 7c12 6 34 15 47 19 5 1 9 2 13 2 5 0 8-1 11-1 3-1 5-1 8-1z m-34 7c-20-5-55-22-57-23-1-1-2-2-2-4 0-1 1-2 3-3l29-10c3-1 6-3 8-7 1-3 1-6 0-10-2-5-7-9-13-9-1 0-3 1-4 1 0 0-19 6-45 15l-4 2c-23 8-42 15-53 40-12 26-4 39 7 53 8 10 50 31 66 39 1 0 2 0 3 0 3 0 6-2 7-5 1-1 1-4 1-6l-9-4 0 0c-2-1-2-3-2-5 1-2 4-3 6-2l15 7c1 1 2 1 4 1 4 0 8-2 9-6 1-2 1-5 1-8-1-2-3-4-6-5l-6-3c-1-1-2-3-1-5 0-2 3-3 5-2l12 6c2 1 3 1 5 1 4 0 7-2 9-6 2-5 3-13-5-16l-9-5c-2-1-3-3-2-5 1-2 3-3 5-2 0 0 25 8 39 8 15 0 25-3 28-8 1-3 1-6 0-8-2-3-4-5-7-6-3 0-6 0-9 1-4 1-8 2-13 2-5 0-10-1-15-3z m290-47c-2 6-8 10-15 10-2 0-3 0-5-1-2 0-4-2-5-3-3 6-10 11-17 11-2 0-4-1-6-2-4-1-7-4-9-7-3 4-8 6-14 6-2 0-4 0-6-1-6-2-11-7-13-13-4 6-8 12-12 16-8 8-19 17-29 17-2 0-4 0-5-1-5-1-9-5-10-10-2-5-1-11 2-16 1-1 1-2 2-2-3-8-8-15-15-20-25-21-64-18-85 7 0 1-1 1-1 1l0 0 9 8c1 1 1 3 1 4 0 2-2 3-4 4l-21 1c-2 1-4-1-5-3l-1-22c-1-1 1-3 2-4 1-1 3-1 5 0l6 6c1-1 1-1 1-1 25-30 70-34 100-9 7 6 12 13 17 21 4-3 9-7 14-16 7-12 16-34 20-46l-19 9c-3 2-6 2-9 2-8 0-16-4-19-12-5-10 0-23 10-28 0 0 18-9 42-21l4-1c16-8 31-15 48-15l0 0c8 0 16 2 25 5 30 11 35 30 37 48 2 18-19 76-20 78z m12-77c-2-17-6-32-32-42-8-3-15-4-22-4-16 0-29 6-45 14l-4 1c-24 12-41 21-42 21-6 3-9 11-6 18 2 5 7 8 12 8 2 0 4-1 6-2l27-13c2-1 3-1 5 0 1 1 1 3 1 4-1 2-14 39-24 57-7 12-14 16-19 20-3 2-5 3-7 6-2 2-2 6-1 8 1 3 3 5 5 6 6 2 16-3 26-14 10-10 22-33 22-33 1-2 3-3 5-2 2 1 3 3 2 5l-3 10c-3 8 3 13 8 15 1 0 2 0 3 0 5 0 9-2 10-6l5-13c1-2 3-4 5-3 2 1 3 3 2 5l-2 6c-1 3-1 5 0 8 1 2 3 4 6 5 1 1 2 1 3 1 5 0 9-3 10-7l6-15c1-2 3-4 5-3 2 1 3 3 2 5l-3 9c1 2 3 3 4 4 1 0 2 0 3 0 4 0 7-2 8-4 6-17 21-61 19-75z"/>
<glyph glyph-name="rotate-02" unicode="&#49;" d="M426 262c-2 6-8 10-15 10-2 0-4-1-6-1-1-1-3-2-6-4-2 7-9 11-16 11-2 0-4-1-6-1-4-2-7-5-9-8-4 4-9 6-14 6-2 0-4 0-6-1-4-1-8-4-11-8l-6 18c8 9 11 22 6 34-5 14-18 23-32 23-4 0-8-1-12-2-9-3-16-10-20-18-3-8-4-18-1-27 5-11 15-20 27-22l28-76-20 10c-2 1-5 2-8 2-8 0-16-5-19-12-3-5-3-11-1-16 2-5 6-10 11-12 0 0 17-9 42-21l4-1c16-7 30-13 47-13 0 0 0 0 0 0 9 0 17 1 25 4 31 11 35 29 38 47 2 18-19 75-20 78z m12-77c-2-17-6-31-32-41-8-3-15-3-23-3 0 0 0 0 0 0-15 0-28 5-44 12l-4 1c-24 12-42 21-42 21-3 1-6 4-7 7-1 4-1 7 1 11 2 4 6 7 12 7 2 0 3 0 5-1l28-14c1 0 3 0 4 1 1 1 2 3 1 4l-40 111c-2 5-2 11 5 14 1 0 2 0 3 0 4 0 7-3 9-8l25-67c0-2 3-3 5-3 2 1 3 3 2 5l-4 10c-2 8 4 13 8 15 2 1 3 1 4 1 4 0 8-3 10-7l4-13c1-2 3-3 5-3 2 1 3 3 3 5l-3 7c-1 5 1 11 7 13 1 0 2 0 3 0 4 0 8-3 10-7l5-15c1-2 3-3 5-3 2 1 3 3 3 5l-4 10c1 1 4 3 6 3 1 1 2 1 3 1 3 0 7-2 8-5 6-16 20-60 19-74z m-186 93c-4 8-6 17-6 27 0 33 27 60 60 60 32 0 59-26 60-58l0 0 0 0-10 2c-2 0-4-1-4-2-1-1-1-3 0-4l12-18c1-2 4-2 5-1l18 12c2 1 2 3 2 4 0 2-2 3-3 3l-10 2c0 39-31 70-70 70-39 0-70-31-70-70 0-9 1-18 4-26-1 0-3 0-5 0-5 0-13-1-20-2 3 5 3 13 0 18-3 7-10 11-18 10 1 4 1 9-1 12-3 7-9 11-16 11-2 0-4-1-6-1-1 2-1 4-2 5-2 6-8 10-14 10-3 0-5-1-6-2-3-1-58-27-69-41-12-14-22-31-8-60 13-28 34-36 58-45l4-1c25-9 44-15 44-15 3-1 5-1 7-1 9 0 17 5 20 13 2 6 2 11-1 17-2 5-6 8-11 10l-21 7c12 6 34 15 47 19 5 1 9 2 13 2 4 0 8-1 11-1 3-1 5-2 8-2 1 0 3 1 4 1 6 1 10 4 12 9 3 5 3 10 1 15-3 6-11 9-19 11z m12-22c-2-3-4-5-8-6-2 0-5 0-8 1-4 1-8 2-13 2-5 0-10-1-15-3-20-5-55-22-57-23-1-1-2-2-2-4 0-1 1-3 3-3l29-10c3-1 6-4 8-7 1-3 1-7 0-10-2-5-7-9-13-9-1 0-3 1-4 1-1 0-19 6-45 15l-4 2c-23 8-42 15-53 40-12 26-4 39 7 53 8 10 50 31 66 38 1 1 2 1 3 1 3 0 6-2 7-5 1-1 1-4 1-6l-9-4 0 0c-2-1-3-3-2-5 1-2 4-3 5-2l16 7c1 1 2 1 4 1 4 0 7-2 9-6 1-2 1-5 0-8 0-2-2-4-5-5l-6-3c-2-1-2-3-1-5 0-2 3-3 5-2l12 6c2 1 3 1 5 1 4 0 7-2 9-6 2-5 3-13-5-17l-9-4c-2-1-3-3-2-5 0-2 3-3 4-2 1 0 26 8 39 8 16 0 26-3 29-9 1-2 1-5 0-7z"/>
<glyph glyph-name="doubletap-2" unicode="&#50;" d="M350 248c-1 0-6-1-10-2-1 15-14 28-29 28-7 0-12-2-17-6l0 40c33 12 56 43 56 79 0 46-38 83-83 83-26 0-49-11-65-31-42-4-74-40-74-82 0-36 23-67 55-78l1-59c-3-2-8-5-15-11-23-21-31-72-5-112 29-44 64-62 114-62 54 0 72 27 86 54 14 27 14 129 14 133 0 14-13 26-28 26z m-209 109c0 37 28 67 65 70 2 0 4 1 5 2 13 18 34 28 56 28 38 0 70-32 70-70 0-29-18-54-43-65l0 14c18 10 30 29 30 51 0 31-26 57-57 57-22 0-41-11-51-30-2 0-3 0-5 0-32 0-58-25-58-57 0-22 12-40 29-50l1-15c-25 11-42 36-42 65z m95 28l0-9c-6 8-14 13-25 13-17 0-30-14-30-32l1-34c-10 8-16 20-16 34 0 25 20 45 45 45 2 0 5-1 8-1 2-1 5 1 7 4 7 16 23 26 41 26 24 0 44-20 44-44 0-14-6-27-17-35l0 33c0 17-13 29-28 29-17 0-30-13-30-29z m117-290c-13-26-28-48-75-48-46 0-76 17-103 57-16 24-22 73 2 95 3 3 6 5 8 6l1-45c0-3 3-6 6-6 4 0 6 3 6 7l-2 118 0 9-1 20 0 7-1 42c0 11 7 19 17 19 10 0 17-8 17-20l2-40 0-14 0-26 0 0 2-40c0-3 2-7 7-7 5 0 6 4 6 7l4 149c0 9 7 17 17 17 10 0 16-9 16-17l0-141c0-4 2-7 5-7 4 0 6 3 6 7 0 9 8 17 18 17 9 0 18-8 18-17l0-28c0-4 2-6 6-6 3 0 6 2 6 6l0 16c0 2 7 3 10 3 8 0 14-6 14-13 0-28-2-107-12-127z"/>
<glyph glyph-name="drag-down-2" unicode="&#51;" d="M251 418c3-2 7-2 10 0l25 26c2 2 3 5 2 8-1 2-4 5-6 5l-17 0 0 41c0 4-5 8-9 8-4 0-9-4-9-8l0-41-17 0c-2 0-5-3-6-5-1-3 0-6 2-8z m-59-42c2-3 6-3 9 0l25 25c2 2 3 6 2 8-1 3-4 5-6 5l-17 0 0 62c0 5-4 9-9 9-4 0-8-4-8-9l0-62-17 0c-3 0-5-2-6-5-1-2-1-5 1-7z m82-375c-51 0-85 18-114 62-26 40-19 90 4 112 7 6 12 9 16 11l-3 137c0 18 13 32 30 32 10 0 19-5 24-13l0 9c0 16 14 29 30 29 16 0 29-13 29-30l0-116c4 3 10 5 16 5 16 0 28-12 29-27 5 1 9 2 11 2 15 0 27-12 27-26 0-4 0-106-13-133-14-27-32-54-86-54z m-94 170c-2-2-4-4-7-6-25-23-18-71-2-95 26-40 56-57 103-57 47 0 61 22 74 48 10 20 12 99 12 127 0 7-6 13-13 13-3 0-10-2-10-3l0-16c0-4-3-7-6-7-4 0-7 3-7 7l0 28c0 9-8 17-18 17-9 0-17-8-17-17 0-4-2-7-6-7-4 0-6 3-6 7l0 140c0 9-5 17-16 17-9 0-16-7-16-17l-4-148c0-3-1-7-6-7-5 0-7 3-7 7l-4 120c0 11-7 20-17 20-10 0-17-8-17-19l4-197c0-3-3-6-6-6-4 0-7 3-7 6z"/>
<glyph glyph-name="drag-left-2" unicode="&#52;" d="M288 243c-4 2-8 2-11 2 2 7 2 14-1 21-4 7-10 12-17 15-6 2-12 2-18 1l40 109c3 8 2 16 0 23-3 7-9 12-17 15-3 1-6 2-10 2-12 0-23-8-27-20l-4-9c-2 10-8 18-18 21-4 2-7 2-10 2-13 0-24-8-29-22l-44-129c-4-1-10-2-19-5-29-12-53-58-42-104 12-51 38-80 86-97 13-5 26-8 37-8 29 0 46 15 62 30 22 20 57 116 58 120 5 13-3 28-16 33z m4-29c-10-26-39-100-55-115-14-14-29-26-53-26-10 0-21 2-33 7-44 16-66 41-78 88-6 28 4 76 35 89 4 1 7 2 9 3l-14-42 0 0c-2-4 0-7 4-9 3-1 7 1 8 4l63 186c4 10 13 16 22 12 10-3 14-13 10-24l-37-113c-1-4 1-7 4-8 3-2 7 0 8 3l54 137c2 7 8 12 15 12 2 0 4 0 6-1 4-2 7-4 9-8 1-4 1-9 0-13l-48-133c0 0 0 0 0 0-2-3 0-7 3-8 4-1 7 1 9 4 2 7 9 11 16 11 2 0 4 0 5-1 5-1 8-5 10-9 2-4 2-9 1-13l-10-26c-1-3 1-7 4-8 3-1 7 0 8 4l6 15c1 0 2 0 3 0 3 0 6 0 7-1 7-2 12-10 9-17z m162 153l-113 0 0 13c0 3 0 5-3 6-2 1-4 1-6-1l-25-24c-3-2-3-6 0-8l25-24c2-2 4-3 6-2 3 1 3 4 3 6l0 17 113 0c4 0 9 4 9 8 0 5-5 9-9 9z m-79 22c2-2 4-3 6-2 2 1 3 3 3 6l0 17 70 0c4 0 9 4 9 8 0 4-5 9-9 9l-70 0 0 13c0 3-1 5-3 6-2 1-4 0-6-1l-25-24c-3-3-3-6 0-9z"/>
<glyph glyph-name="drag-right-2" unicode="&#53;" d="M431 279c-3 10-13 16-25 16-3 0-6 0-9-1-2-1-5-3-8-5-5 10-16 17-27 17-4 0-7 0-11-2-5-2-10-6-14-10l-39 109c-5 12-16 20-28 20-3 0-7-1-10-2-15-6-23-22-17-38l3-9c-8 6-18 8-28 4-8-3-14-8-17-16-3-8-3-16 0-24l49-128c-2-2-6-7-10-15-15-28-5-79 33-107 28-20 53-29 79-29 16 0 32 3 50 10 51 18 58 50 62 80 3 30-31 126-33 130z m20-128c-3-29-9-54-53-70-17-6-31-9-46-9-24 0-46 8-71 27-23 16-46 60-30 90 2 3 3 5 5 8l16-42c1-3 5-5 8-4 3 2 5 5 4 9l-71 182c-2 5-2 11 0 15 1 4 5 8 9 9 10 4 19-2 23-12l45-111c1-3 5-5 8-3 3 1 5 4 4 8l-47 139c-3 9 1 19 10 22 8 3 17 0 20-9l49-131 0 0c1-4 4-7 8-5 3 1 4 3 4 6l0 0c0 5-2 9 0 14 2 4 6 7 10 8 2 1 4 1 6 1 7 0 14-4 16-11l10-26c0 0 0 0 0 0 0 0 0 0 0 0 0 0 0 0 0 0 0 0 0 0 0 0 0 0 0 0 0 0 0 0 0 0 0 0 0 0 0 0 0 0 0 0 0 0 0 0 0 0 0 0 0 0 0 0 0 0 0 0 2-3 5-5 8-4 3 1 5 4 5 6 0 0 0 0 0 0 0 0 0 0 0 0 0 1-1 2-1 2l-6 16c1 2 5 5 8 6 1 0 3 1 4 1 6 0 11-4 13-9 10-26 35-101 32-123z m-280 289c-2 2-4 3-6 2-2-1-3-4-3-6l0-14-113 0c-4 0-8-4-8-8 0-4 4-9 8-9l113 0 0-16c0-3 1-5 3-6 2-1 4-1 6 1l25 24c3 2 3 6 0 9z m-43-59c-2 1-3 2-6 1-2-1-3-3-3-6l0-13-70 0c-4 0-8-5-8-9 0-4 4-8 8-8l70 0 0-17c0-3 1-5 3-6 3-1 4 0 6 2l26 23c2 3 2 6 0 9z"/>
<glyph glyph-name="drag-up-2" unicode="&#54;" d="M235 469l17 0 0-65c0-5 4-9 8-9 5 0 9 4 9 9l0 65 17 0c2 0 5 1 6 3 1 3 0 5-2 7l-25 25c-3 3-7 3-9 0l-26-25c-2-2-2-4-1-6 1-3 3-4 6-4z m-60-42l17 0 0-45c0-4 4-8 9-8 4 0 8 4 8 8l0 45 17 0c3 0 5 0 6 3 1 2 1 5-1 6l-26 26c-2 2-6 2-9 0l-26-26c-1-2-2-4-1-6 1-3 3-3 6-3z m99-426c-51 0-85 18-114 62-26 40-19 90 4 112 7 6 12 9 16 11l-3 137c0 18 13 32 30 32 10 0 19-5 24-13l0 9c0 16 14 29 30 29 16 0 29-13 29-30l0-116c4 3 10 5 16 5 16 0 28-12 29-27 5 1 9 2 11 2 15 0 27-12 27-26 0-4 0-106-13-133-14-27-32-54-86-54z m-94 170c-2-2-4-4-7-6-25-23-18-71-2-95 26-40 56-57 103-57 47 0 61 22 74 48 10 20 12 99 12 127 0 7-6 13-13 13-3 0-10-2-10-3l0-16c0-4-3-7-6-7-4 0-7 3-7 7l0 28c0 9-8 17-18 17-9 0-17-8-17-17 0-4-2-7-6-7-4 0-6 3-6 7l0 140c0 9-5 17-16 17-9 0-16-7-16-17l-4-148c0-3-1-7-6-7-5 0-7 3-7 7l-4 120c0 11-7 20-17 20-10 0-17-8-17-19l4-197c0-3-3-6-6-6-4 0-7 3-7 6z"/>
<glyph glyph-name="fling-down-2" unicode="&#55;" d="M439 297c-20 21-116 56-120 58-2 1-5 1-8 1-11 0-21-7-25-18-1-2-2-6-2-10-3 1-5 1-8 1-12 0-24-8-28-19-2-6-2-12-1-18l-109 39c-4 2-7 2-11 2-12 0-23-7-27-18-5-15 3-32 18-38l9-3c-10-2-18-9-21-19-3-8-3-16 1-23 4-7 11-13 19-16l129-44c1-3 2-10 6-18 9-22 41-45 80-45 8 0 15 1 23 3 51 12 80 38 98 85 18 51-1 77-23 100z m11-95c-16-44-42-67-89-78-7-1-13-2-20-2-33 0-61 19-69 37-1 3-2 6-3 9l43-15 0 0c3-1 7 1 8 4 1 4-1 7-4 8l-186 63c-5 2-9 6-11 10-3 4-3 8-1 13 3 9 13 14 24 10l114-37c3-1 6 0 8 4 1 3-1 6-4 8l-137 53c-9 4-14 13-11 22 3 6 8 10 15 10 2 0 4-1 7-2l132-48c0 0 0 0 0 0 3-1 7 1 8 4 1 3 0 7-4 8-4 2-7 5-9 9-2 4-2 9-1 13 3 7 9 11 16 11 2 0 4 0 6-1l26-9c3-1 7 0 8 4 1 3 0 7-4 8l-15 6c0 2 0 7 1 10 2 7 10 11 17 9 27-10 100-39 115-55 20-21 36-42 20-86z m-362-46c-5-1-10-2-15-3-17 75-14 153 8 227 1 4-1 10-5 11-4 2-10-2-11-6-23-77-26-158-8-236-6-2-13-3-19-4-2-1-5-2-5-5 0-3 1-5 3-7 11-7 22-14 33-21 3-1 7 0 8 3 6 12 11 23 18 33 1 3 1 4-1 6-1 3-3 3-6 2z"/>
<glyph glyph-name="fling-left-2" unicode="&#56;" d="M384 262c-3 10-13 16-24 16-4 0-7 0-10-1-2-1-5-3-8-5-5 10-16 17-27 17-4 0-7-1-10-2-6-2-11-6-15-11l-39 110c-5 12-16 20-28 20-3 0-6-1-10-2-15-6-23-22-17-38l3-9c-8 6-18 8-28 4-8-3-14-9-17-16-3-8-3-16 0-24l49-128c-2-3-6-8-10-16-15-27-5-78 34-106 27-20 52-29 78-29 16 0 32 3 50 9 51 19 58 50 62 81 3 30-31 126-33 130z m20-128c-3-29-9-55-53-71-17-5-31-8-46-8-24 0-46 8-71 27-23 16-46 60-30 90 2 3 3 5 5 7l16-41c1-3 5-5 8-4 3 1 5 5 4 8l-71 183c-2 5-2 11 0 15 1 4 5 8 9 9 10 4 19-2 23-12l45-111c1-3 5-5 8-4 3 2 5 5 4 9l-47 139c-3 9 1 19 10 22 8 3 17 0 21-9l48-131 0 0c1-5 5-7 8-5 3 1 4 3 4 6l0 0c0 5-2 9 0 13 2 5 6 8 10 9 2 1 4 1 6 1 7 0 14-4 16-11l10-26c0 0 0 0 0 0 0 0 0 0 0 0 0 0 0 0 0 0 0 0 0 0 0 0 0 0 0 0 0 0 0 0 0 0 0 0 0-1 0-1 0-1 0 0 0 0 0 0 0 0 0 0 0 0 0 0 0 0 0 0 2-2 5-4 8-3 3 1 5 4 5 6 0 0 0 0 0 0 0 0 0 0 0 0 0 1-1 2-1 2l-6 16c1 2 5 5 8 6 1 0 3 1 5 1 5 0 10-4 12-9 10-27 35-101 32-123z m-277 292c75 17 153 15 227-8 4-1 10 2 11 6 2 4-1 9-6 11-77 23-158 25-236 8-1 6-3 12-4 18-1 3-2 5-5 5-3 1-5 0-6-3-8-11-15-21-21-32-2-4-1-7 2-9 12-5 23-11 34-17 2-2 4-2 6 0 2 1 2 4 1 6-1 5-2 10-3 15z"/>
<glyph glyph-name="fling-right-2" unicode="&#57;" d="M347 218c-3 1-7 1-10 2 2 6 1 14-2 20-3 7-9 13-16 15-6 3-13 3-18 1l40 110c2 7 2 15-1 22-3 7-8 13-16 15-3 2-7 2-10 2-12 0-23-8-27-20l-4-8c-2 9-9 17-18 21-4 1-7 2-11 2-12 0-24-9-29-22l-44-130c-3 0-9-2-18-5-29-12-53-57-42-103 12-51 38-81 86-98 13-5 26-7 37-7 28 0 46 14 62 29 21 21 57 116 58 121 5 13-3 28-17 33z m5-29c-10-27-39-100-55-116-14-13-29-26-53-26-10 0-21 3-33 7-44 16-66 42-78 89-6 27 4 75 35 88 3 2 6 2 9 3l-15-42 0 0c-1-3 1-7 4-8 4-1 7 0 8 4l64 186c3 10 13 15 22 12 10-4 13-14 10-24l-37-114c-1-3 0-7 4-8 3-1 6 0 8 4l53 137c3 7 9 11 16 11 2 0 4 0 6-1 4-1 7-4 8-8 2-4 2-9 0-13l-48-132c0 0 0 0 0 0l0 0c-1-4 1-7 4-9 3-1 7 1 8 4 3 7 9 12 16 12 2 0 4-1 6-2 5-1 8-4 10-8 2-4 2-9 0-13l-9-26c-1-4 0-7 4-9 3-1 7 1 8 4l6 16c0 0 1 0 3 0 3 0 5-1 7-1 7-3 11-11 9-17z m48 246c-7 11-14 22-21 32-2 3-4 4-7 3-3 0-4-2-4-5-2-6-3-12-5-18-78 18-159 15-236-8-4-2-7-7-6-11 1-4 7-7 11-6 74 23 153 25 227 8-1-5-2-10-3-14 0-3 0-5 2-7 2-1 4-1 6 0 10 6 21 12 33 17 3 2 5 6 3 9z"/>
<glyph glyph-name="fling-up-2" unicode="&#33;" d="M439 297c-20 21-116 56-120 58-2 1-5 1-8 1-11 0-21-7-25-18-1-2-2-6-2-10-3 1-5 1-8 1-12 0-24-8-28-19-2-6-2-12-1-18l-109 39c-4 2-7 2-11 2-12 0-23-7-27-18-5-15 3-32 18-38l9-3c-10-2-18-9-21-19-3-8-3-16 1-23 4-7 11-13 19-16l129-44c1-3 2-10 6-18 9-22 41-45 80-45 8 0 15 1 23 3 51 12 80 38 98 85 18 51-1 77-23 100z m11-95c-16-44-42-67-89-78-7-1-13-2-20-2-33 0-61 19-69 37-1 3-2 6-3 9l43-15 0 0c3-1 7 1 8 4 1 4-1 7-4 8l-186 63c-5 2-9 6-11 10-3 4-3 8-1 13 3 9 13 14 24 10l114-37c3-1 6 0 8 4 1 3-1 6-4 8l-137 53c-9 4-14 13-11 22 3 6 8 10 15 10 2 0 4-1 7-2l132-48c0 0 0 0 0 0 3-1 7 1 8 4 1 3 0 7-4 8-4 2-7 5-9 9-2 4-2 9-1 13 3 7 9 11 16 11 2 0 4 0 6-1l26-9c3-1 7 0 8 4 1 3 0 7-4 8l-15 6c0 2 0 7 1 10 2 7 10 11 17 9 27-10 100-39 115-55 20-21 36-42 20-86z m-373 186c-1 3-5 5-8 3-11-7-22-14-33-21-2-2-3-4-3-7 0-3 3-4 5-4 6-2 13-3 19-5-18-78-15-159 8-236 1-4 7-7 11-6 4 1 6 7 5 11-22 74-25 152-8 227 5-1 10-2 15-3 3-1 5-1 6 2 2 2 2 4 1 6-7 10-12 21-18 33z"/>
<glyph glyph-name="pinch" unicode="&#34;" d="M107 274c-3 2-7 2-9 0l-26-26c-2-2-2-4-1-6 1-2 3-3 6-3l17 0 0-44c0-5 4-9 8-9 5 0 9 4 9 9l0 44 17 0c3 0 5 1 6 3 1 2 0 5-1 7z m21 67l-17 0 0 41c0 5-4 9-9 9-4 0-8-4-8-9l0-41-17 0c-3 0-5-2-6-4-1-3-1-6 1-8l26-26c2-2 6-2 9 0l26 26c1 2 2 5 1 8-1 2-3 4-6 4z m278-11c-4 10-14 17-25 17-3 0-6-1-9-2-3-1-6-3-9-5-4 10-15 17-27 17-3 0-7 0-10-2-6-2-12-6-15-12-6 6-14 10-23 10-4 0-7 0-10-2-8-2-15-8-19-15-1-2-2-4-3-6-7 10-14 20-21 27-13 13-32 28-48 28-3 0-6 0-9-1-8-3-14-10-16-18-3-8-2-18 3-26 4-6 10-9 15-13 9-5 18-12 28-29 11-20 25-57 33-77l-32 16c-5 2-10 3-15 3-14 0-26-8-32-20-8-18 0-38 17-46 0-1 30-16 70-35l7-3c26-13 51-24 79-24l0 0c14 0 27 2 42 8 50 18 58 50 62 80 3 30-32 126-33 130z m20-128c-3-29-10-54-54-70-13-5-25-7-37-7l0 0c-26 0-48 10-74 22l-6 3c-41 19-70 35-70 35-12 5-16 18-11 30 4 8 11 12 20 12 3 0 6 0 9-2l46-22c3-2 6-1 7 0 2 2 3 5 2 7-1 3-22 64-39 95-11 19-23 27-32 33-5 3-8 6-11 10-3 4-4 9-2 14 1 5 4 8 9 10 9 3 25-6 43-24 16-16 37-55 37-55 1-3 5-4 8-3 3 1 5 5 3 8l-5 16c-2 6-2 11 1 16 3 4 7 8 12 9 2 1 4 1 6 1 7 0 13-4 16-11l8-22c1-3 5-5 8-4 3 2 5 5 4 9l-4 10c-1 4-1 8 1 13 2 4 5 7 10 8 1 1 3 1 5 1 8 0 14-4 16-11l10-26c1-3 5-5 8-4 3 2 5 5 4 9l-6 15c2 2 6 5 8 6 2 0 3 1 5 1 6 0 11-4 13-8 10-27 34-102 32-124z"/>
<glyph glyph-name="press-2" unicode="&#35;" d="M347 261c-1 0-5-1-10-2-1 15-12 27-28 27-6 0-10-2-15-5l0 68c17 10 29 29 29 50 0 32-27 58-59 58-21 0-41-12-51-30-1 0-3 0-5 0-31 0-57-26-57-57 0-22 11-40 29-50l1-87c-3-2-8-5-15-12-23-21-31-72-5-111 30-44 64-63 115-63 53 0 72 28 85 55 14 27 14 129 14 133 0 14-13 26-28 26z m3-153c-13-26-28-48-74-48-47 0-77 17-104 57-16 24-22 72 3 95 2 2 5 4 7 6l1-45c0-3 3-6 6-6 4 0 7 3 6 6l-3 148 0 7-1 41c0 12 7 20 17 20 10 0 17-9 17-20l2-40 0-14 3-66c0-4 1-7 6-7 5 0 7 3 7 7l3 148c0 10 9 17 18 17 11 0 18-8 18-17l0-140c0-4 0-7 4-7 3 0 5 3 5 7 0 9 9 17 18 17 10 0 20-8 20-17l0-28c0-4 2-7 6-7 3 0 6 3 6 7l0 16c0 1 6 3 9 3 7 0 13-6 13-13 0-28-3-107-13-127z"/>
<glyph glyph-name="press-and-drag-2" unicode="&#36;" d="M400 401l-13 10c-2 1-3 2-5 1-1-1-2-2-2-4l0-3-17 0 0 17 4 0c2 0 3 1 4 2 1 2 0 3-1 4l-10 13c-2 2-5 2-7 0l-11-13c-1-1-1-2 0-4 0-1 2-2 4-2l4 0 0-17-17 0 0 3c0 2-1 3-3 4-1 1-3 0-4-1l-13-10c-1-1-2-2-2-4 0-1 1-2 2-3l13-11c1 0 2-1 3-1 0 0 1 1 1 1 2 1 3 2 3 4l0 6 17 0 0-18-4 0c-2 0-4-1-4-3-1-1-1-3 0-5l11-13c1-1 2-1 3-1 2 0 3 0 4 1l10 13c1 1 2 4 1 5-1 2-2 3-4 3l-4 0 0 18 17 0 0-6c0-2 1-3 2-4 1 0 1-1 2-1 1 0 2 1 3 1l13 11c1 1 1 2 1 3 0 2 0 3-1 4z m-81-140c-2 0-6-1-10-2-2 15-13 27-29 27-6 0-11-2-15-5l0 68c17 10 29 29 29 50 0 32-27 58-58 58-22 0-41-12-51-30-2 0-4 0-5 0-32 0-58-26-58-57 0-22 12-40 29-50l2-87c-3-2-9-5-15-12-24-21-31-72-5-111 29-44 63-63 114-63 54 0 72 28 86 55 13 27 13 129 13 133 0 14-12 26-27 26z m2-153c-13-26-27-48-74-48-47 0-77 17-103 57-16 24-23 72 2 95 3 2 5 4 7 6l1-45c0-3 3-6 7-6 3 0 6 3 6 6l-3 148 0 7-1 41c0 12 7 20 17 20 10 0 17-9 17-20l1-40 1-14 2-66c0-4 2-7 7-7 5 0 6 3 6 7l4 148c0 10 8 17 17 17 10 0 17-8 17-17l0-140c0-4 1-7 5-7 3 0 5 3 5 7 0 9 9 17 18 17 10 0 19-8 19-17l0-28c0-4 3-7 6-7 4 0 6 3 6 7l0 16c0 1 6 3 9 3 8 0 14-6 14-13 0-28-3-107-13-127z"/>
<glyph glyph-name="press-and-hold-2" unicode="&#37;" d="M339 393l28 0c3 0 6 2 6 6 0 3-3 6-6 6l-21 0 0 20c0 4-3 6-7 6-3 0-6-2-6-6l0-28c0-3 3-4 6-4z m-1-51c32 0 58 26 58 57 0 32-26 58-58 58-20 0-35-10-48-24l0 0c-8 14-26 24-46 24-21 0-40-12-50-30-2 0-3 0-5 0-31 0-57-26-57-57 0-22 12-40 29-50l2-87c-4-2-9-5-15-12-24-21-31-72-5-111 29-44 63-63 114-63 54 0 72 28 86 55 13 27 13 129 13 133 0 14-12 26-27 26-2 0-6-1-10-2-2 15-14 27-30 27-6 0-12-2-16-5l0 68c7 4 13 10 17 18l0-1c13-15 29-24 48-24z m-49-68c10 0 18-8 18-17l0-28c0-4 3-7 7-7 3 0 6 3 6 7l0 16c0 1 7 3 10 3 7 0 13-6 13-13 0-28-2-107-12-127-13-26-27-48-74-48-47 0-77 17-103 57-16 24-23 72 2 95 3 2 5 4 7 6l1-45c0-3 3-6 7-6 3 0 6 3 6 6l-3 148 0 7-1 41c0 12 7 20 17 20 10 0 17-9 17-20l1-40 1-14 2-66c0-4 2-7 7-7 5 0 6 3 6 7l4 148c0 10 7 17 16 17 11 0 16-8 16-17l0-140c0-4 2-7 6-7 4 0 6 3 6 7 0 9 8 17 17 17z m50 170c25 0 45-20 45-45 0-24-20-44-45-44-17 0-33 10-40 24-1 2-1 3-2 5 0 0 0 0 0 0-1 2-1 3-1 4 0 1 0 1-1 1 0 2 0 3 0 4 0 1 0 1 0 1-1 2-1 4-1 5 0 2 0 4 1 6 0 0 0 0 0 1 0 1 0 2 0 4 1 0 1 0 1 1 0 1 0 2 1 4 0 0 0 0 0 0 1 2 1 3 2 5 7 14 23 24 40 24z"/>
<glyph glyph-name="press-and-tap" unicode="&#38;" d="M346 261c-2 0-6-1-10-2-2 15-14 27-30 27-6 0-12-2-16-5l0 68c18 10 30 29 30 50 0 32-26 58-58 58-22 0-41-12-50-30-2 0-4 0-5 0-32 0-58-26-58-57 0-22 12-40 29-50l2-87c-3-2-9-5-15-12-24-21-31-72-5-111 29-44 63-63 114-63 54 0 72 28 86 55 13 27 13 129 13 133 0 14-12 26-27 26z m-84 183c25 0 45-20 45-45 0-14-7-26-17-34l0 32c0 17-13 30-29 30-16 0-29-13-29-30l-1-8c-3 5-8 9-14 11 1 24 21 44 45 44z m86-336c-13-26-27-48-74-48-47 0-77 17-103 57-16 24-23 72 2 95 3 2 5 4 7 6l1-45c0-3 3-6 7-6 3 0 6 3 6 6l-3 141-1 55c0 12 7 20 17 20 10 0 17-9 17-20l4-120c0-4 2-7 7-7 5 0 6 3 6 7l2 76 1 26 1 46c0 10 7 17 16 17 11 0 16-8 16-17l0-140c0-4 3-7 6-7 4 0 6 3 6 7 0 9 8 17 17 17 10 0 18-8 18-17l0-28c0-4 3-7 7-7 3 0 6 3 6 7l0 16c0 1 7 3 10 3 7 0 14-6 14-13 0-28-3-107-13-127z"/>
<glyph glyph-name="rotate" unicode="&#39;" d="M448 313c-3 10-13 16-24 16-3 0-6 0-9-1-3-1-6-3-9-5-5 10-15 17-27 17-3 0-7 0-10-2-7-2-12-6-16-12-5 6-14 10-22 10-4 0-7 0-11-2-7-2-14-8-18-15-2-2-3-4-3-6-7 10-14 20-21 27-13 13-32 28-49 28-2 0-5-1-8-1-1-1-2 0-3-1-20 16-45 27-73 27-1 0-3 0-4 0l0 0 0 14c0 3-2 5-4 6-3 1-6 1-8-1l-25-26c-2-2-2-6 0-9l26-25c2-2 4-3 7-2 2 1 4 4 4 6l0 19c1 0 3 0 4 0 23 0 44-8 61-21-1-1-1-3-2-5-3-8-1-18 4-25 4-6 9-10 15-14 6-4 13-9 21-19 1-5 1-11 1-17 0-19-5-36-14-51-11-2-21-10-26-20-2-3-3-7-3-11-5-3-10-6-15-8l8-15c3 2 6 3 10 5 3-7 9-14 17-17 0-1 29-16 70-35l7-3c26-13 50-24 79-24l0 0c13 0 27 2 41 8 51 18 59 50 62 80 4 30-31 126-33 130z m21-128c-4-29-10-54-54-70-13-5-25-7-37-7l0 0c-26 0-48 10-74 22l-7 3c-40 19-69 35-70 35-11 5-16 18-10 30 3 7 11 12 20 12 3 0 6 0 9-2l46-23c2-1 5 0 7 1 2 2 3 5 2 7-1 3-22 64-39 94-12 20-23 28-32 34-5 3-9 6-11 9-3 5-4 10-3 15 2 4 5 8 10 9 8 4 25-5 43-23 16-16 36-55 36-55 2-3 6-4 9-3 3 1 4 5 3 8l-6 16c-2 6-1 11 2 16 2 4 7 8 12 9 2 1 4 1 6 1 7 0 13-4 16-11l8-22c1-3 5-5 8-4 3 1 5 5 4 8l-4 11c-2 4-1 8 1 13 2 4 5 7 9 8 2 1 4 1 6 1 7 0 14-4 16-11l10-26c1-3 4-5 8-4 3 2 5 5 4 9l-6 15c2 2 5 5 8 6 2 0 3 1 5 1 6 0 11-4 12-8 10-27 35-102 33-124z m-220 36c6 11 11 24 12 38 9-19 17-41 23-55l-33 16c0 0-1 0-2 1z m-91-24c-2 2-6 2-8 1-2-1-5-3-5-5l0-18c-1 0-1 0-2 0-55 0-100 44-100 99 0 41 24 75 58 91l-8 15c-40-19-67-59-67-106 0-64 52-116 117-116 1 0 1 0 2 0l0-17c0-2 3-5 5-6 2-1 6 0 8 2l26 25c2 3 2 7 0 9z"/>
<glyph glyph-name="scroll-horizontal" unicode="&#40;" d="M347 39c-51 0-85 19-115 63-26 39-18 90 5 111 7 6 12 9 15 11l-3 137c0 18 13 32 30 32 11 0 19-5 25-13l0 9c0 17 14 30 30 30 16 0 29-13 29-30l0-116c4 3 9 5 16 5 15 0 28-12 29-28 5 2 9 2 10 2 15 0 28-12 28-25 0-5 0-107-14-133-14-28-32-55-85-55z m-94 170c-2-1-5-3-7-6-25-22-19-71-3-94 27-41 57-57 104-57 46 0 61 21 74 47 10 20 12 99 12 128 0 6-6 12-14 12-3 0-9-1-9-2l0-17c0-3-3-6-7-6-3 0-6 3-6 6l0 28c0 9-9 17-18 17-10 0-18-8-18-17 0-4-2-6-5-6-4 0-6 2-6 6l0 141c0 8-6 17-16 17-9 0-17-7-17-17l-3-149c0-3-2-7-7-7-5 0-6 4-6 7l-5 120c0 12-7 20-17 20-10 0-17-8-17-19l4-196c1-4-2-7-6-7-3 0-6 3-6 7z m-20 188c0 4-5 8-9 8l-126 0 0 14c0 2-2 5-5 6-2 1-6 0-8-2l-21-24c-2-2-2-6 0-8l21-24c2-2 6-2 8-1 3 1 5 3 5 6l0 16 126 0c4 0 9 5 9 9z m-116 34l130 0 0-17c0-2 1-5 3-6 3-1 4 0 6 2l26 24c2 2 2 6 0 8l-26 24c-2 2-3 2-6 1-2-1-3-3-3-6l0-13-130 0c-4 0-8-4-8-9 0-4 4-8 8-8z"/>
<glyph glyph-name="scroll-vertical" unicode="&#41;" d="M188 297l0 130 17 0c2 0 5 0 6 3 1 2 0 5-2 6l-25 26c-3 2-7 2-9 0l-26-26c-2-2-2-4-1-6 1-3 3-3 6-3l17 0 0-130c0-4 4-8 8-8 4 0 9 4 9 8z m-26-20l-17 0 0 127c0 4-4 8-8 8-5 0-9-4-9-8l0-127-17 0c-3 0-5-2-6-4-1-3 0-6 1-8l26-26c3-2 7-2 9 0l26 26c1 2 2 5 1 8-1 2-3 4-6 4z m142-234c-51 0-85 19-114 63-26 39-19 90 4 111 7 6 12 10 16 12l-3 136c0 19 13 32 30 32 10 0 19-5 24-13l0 9c0 17 14 30 30 30 16 0 29-13 29-30l0-116c4 3 10 5 16 5 16 0 28-12 29-27 5 1 9 2 11 2 14 0 27-12 27-26 0-4 0-106-13-133-14-28-32-55-86-55z m-94 171c-2-2-4-4-7-6-25-23-18-72-3-95 27-41 57-57 104-57 47 0 61 22 74 48 10 20 12 98 12 127 0 7-6 13-14 13-3 0-9-2-9-3l0-16c0-4-3-7-6-7-4 0-7 3-7 7l0 27c0 10-9 17-18 17-9 0-17-7-17-17 0-3-3-6-6-6-4 0-6 3-6 6l0 141c0 8-6 17-16 17-9 0-16-7-16-17l-4-148c0-4-1-8-6-8-6 0-7 4-7 8l-4 120c0 11-7 19-17 19-10 0-17-7-17-19l4-196c0-3-3-6-6-6-4 0-7 2-7 6z"/>
<glyph glyph-name="scrub-fastforward" unicode="&#42;" d="M397 219c-4 10-14 17-25 17-3 0-6-1-9-2-2-1-5-3-8-5-5 11-16 17-27 17-4 0-7 0-11-1-5-2-10-6-14-11l-40 109c-4 12-15 20-27 20-3 0-7-1-10-2-15-5-23-22-17-38l3-9c-8 6-19 8-28 5-8-3-14-9-17-17-3-7-3-16 0-24l49-127c-2-3-6-8-10-16-15-28-5-78 33-106 28-20 53-30 79-30 16 0 32 3 50 10 51 18 58 50 62 81 3 29-32 125-33 129z m20-128c-3-29-10-54-53-70-17-6-32-9-46-9-24 0-46 8-71 27-23 17-46 60-30 90 2 3 3 6 5 8l16-42c1-3 5-5 8-3 3 1 5 5 4 8l-71 183c-2 5-2 10-1 14 2 5 5 8 10 10 9 3 19-2 23-13l45-111c1-3 5-4 8-3 3 1 5 5 4 8l-47 140c-4 9 1 18 9 22 9 3 18-1 21-10l48-131 0 0c2-4 5-6 9-5 3 1 3 3 3 7l0 0c0 4-1 9 1 13 2 4 5 7 10 9 2 0 4 1 6 1 7 0 13-5 16-12l10-26c0 0 0 0 0 0 0 0 0 0 0 0 0 0 0 0 0 0 0 0 0 0 0 0 0 0 0 0 0 0 0 0 0 0 0 0 0 0 0 0 0 0 0 0 0 0 0 0 0 0 0 0 0 0 0 0 0 0 0 0 1-3 5-5 8-3 3 0 5 3 5 5 0 0 0 0 0 0 0 0 0 0 0 0 0 1-1 2-1 3l-7 15c2 2 6 5 9 6 1 1 3 1 4 1 6 0 11-3 13-8 10-27 35-102 32-124z m-265 201c-37 15-62 51-62 93 0 55 45 100 100 100 54 0 98-43 100-97l0 0-1 0-16 3c-3 0-6-1-7-3-1-2-1-5 0-7l21-30c2-3 6-3 9-1l30 20c2 2 3 4 2 7 0 2-2 4-5 5l-16 3c0 64-52 117-117 117-65 0-117-53-117-117 0-53 34-98 82-113l0 2c-3 6-4 12-3 18z"/>
<glyph glyph-name="scrub-rewind" unicode="&#43;" d="M397 223c-4 10-14 17-25 17-3 0-6-1-9-2-2-1-5-2-8-5-5 11-16 18-27 18-4 0-7-1-11-2-5-2-10-6-14-11l-40 109c-4 12-15 20-27 20-3 0-7 0-10-1-15-6-23-23-17-38l3-10c-8 7-19 8-28 5-8-3-14-9-17-17-3-7-3-15 0-24l49-127c-2-3-6-8-10-16-15-28-5-78 33-106 28-20 53-30 79-30 16 0 32 4 50 10 51 18 58 50 62 81 3 29-32 125-33 129z m20-128c-3-29-10-54-53-70-17-6-32-9-46-9-24 0-46 9-71 27-23 17-46 60-30 90 2 3 3 6 5 8l16-42c1-3 5-4 8-3 3 1 5 5 4 8l-71 183c-2 5-2 10-1 15 2 4 5 7 10 9 9 3 19-2 23-13l45-110c1-4 5-5 8-4 3 1 5 5 4 8l-47 140c-4 9 1 19 9 22 9 3 18-1 21-10l48-131 0 0c2-4 5-6 9-5 3 1 3 4 3 7l0 0c0 4-1 9 1 13 2 4 5 7 10 9 2 1 4 1 6 1 7 0 13-5 16-11l10-26c0-1 0-1 0-1 0 0 0 0 0 0 0 0 0 0 0 0 0 0 0 0 0 0 0 0 0 0 0 0 0 0 0 0 0 0 0 0 0 0 0 0 0 0 0 0 0 0 0 0 0 0 0 0 0 0 0 0 0 0 1-3 5-4 8-3 3 1 5 3 5 6 0 0 0 0 0 0 0 0 0 0 0 0 0 0-1 1-1 2l-7 15c2 2 6 5 9 6 1 1 3 1 4 1 6 0 11-3 13-8 10-27 35-102 32-124z m-257 386c47 28 109 12 137-36 21-36 18-79-6-111l6-17 1-1c33 37 41 93 14 138-33 56-105 74-161 42-55-33-74-105-41-161l-12-10c-2-2-3-5-2-7 0-3 3-4 5-5l36-2c4-1 7 2 7 6l3 36c0 2-1 5-4 6-2 1-5 1-7-1l-13-11 0-1 0 0c-26 48-10 107 37 135z"/>
<glyph glyph-name="tap-2" unicode="&#44;" d="M346 261c-2 0-6-1-10-2-2 15-14 27-30 27-6 0-12-2-16-5l0 68c18 10 30 29 30 50 0 32-26 58-58 58-21 0-40-12-50-30-2 0-4 0-5 0-32 0-58-26-58-57 0-22 12-40 29-50l2-87c-3-2-9-5-15-12-24-21-31-72-5-111 29-44 63-63 114-63 54 0 72 28 86 55 13 27 13 129 13 133 0 14-12 26-27 26z m-184 109c0 24 20 44 45 44 2 0 5 0 7 0 3-1 6 1 7 3 7 17 23 27 41 27 25 0 45-20 45-45 0-14-7-26-17-34l0 32c0 17-13 30-29 30-16 0-29-13-29-30l-1-8c-5 8-14 13-24 13-17 0-30-14-30-33l1-33c-10 8-16 20-16 34z m186-262c-13-26-27-48-74-48-47 0-77 17-103 57-16 24-23 72 2 95 3 2 5 4 7 6l1-45c0-3 3-6 7-6 3 0 6 3 6 6l-3 148 0 7-1 41c0 12 7 20 17 20 10 0 17-9 17-20l1-40 1-14 2-66c0-4 2-7 7-7 5 0 6 3 6 7l4 148c0 10 7 17 16 17 11 0 16-8 16-17l0-140c0-4 3-7 6-7 4 0 6 3 6 7 0 9 8 17 17 17 10 0 18-8 18-17l0-28c0-4 3-7 7-7 3 0 6 3 6 7l0 16c0 1 7 3 10 3 7 0 14-6 14-13 0-28-3-107-13-127z"/>
<glyph glyph-name="zoom" unicode="&#45;" d="M111 389c-2 3-6 3-9 0l-25-26c-2-1-3-3-2-6 1-2 3-3 6-3l17 0 0-44c0-4 4-9 9-9 4 0 8 5 8 9l0 44 17 0c3 0 5 1 6 3 1 3 1 5-1 7z m21-163l-17 0 0 41c0 4-4 9-8 9-5 0-9-5-9-9l0-41-17 0c-3 0-5-2-6-5-1-2 0-5 2-7l25-26c3-2 7-2 9 0l26 26c2 1 2 5 1 7-1 3-3 5-6 5z m270 104c-4 10-14 17-25 17-3 0-6-1-9-2-3-1-6-3-9-5-5 10-15 17-27 17-3 0-7 0-10-2-7-2-12-6-16-12-5 6-13 10-22 10-4 0-7 0-11-2-7-2-14-8-18-15-2-2-3-4-3-6-7 10-14 20-21 27-13 13-32 28-48 28-3 0-6 0-9-1-8-3-14-10-17-18-3-8-1-18 4-26 4-6 9-9 15-13 8-5 18-12 28-29 11-20 25-57 33-77l-33 16c-4 2-9 3-14 3-14 0-26-8-32-20-8-18-1-38 17-46 0-1 29-16 70-35l7-3c26-13 50-24 79-24 0 0 0 0 0 0 13 0 27 2 41 8 51 18 59 50 62 80 4 30-31 126-32 130z m20-128c-4-29-10-54-54-70-13-5-25-7-37-7 0 0 0 0 0 0-26 0-48 10-74 22l-7 3c-40 19-69 35-70 35-11 5-16 18-10 30 3 8 11 12 20 12 3 0 6 0 9-2l46-22c2-2 5-1 7 0 2 2 3 5 2 7-1 3-22 64-39 95-12 19-23 27-32 33-5 3-9 6-11 10-3 4-4 9-3 14 2 5 5 8 10 10 8 3 25-6 43-24 16-16 36-55 36-55 2-3 6-4 9-3 3 1 4 5 3 8l-6 16c-2 6-1 11 2 16 2 4 7 8 12 9 2 1 4 1 6 1 7 0 13-4 16-11l8-22c1-3 5-5 8-4 3 2 5 5 4 9l-4 10c-1 4-1 8 1 13 2 4 5 7 9 8 2 1 4 1 6 1 7 0 14-4 16-11l10-26c1-3 5-5 8-4 3 2 5 5 4 9l-6 15c2 2 5 5 8 6 2 0 3 1 5 1 6 0 11-4 13-8 9-27 34-102 32-124z"/>
<glyph glyph-name="doubletap-3" unicode="&#46;" d="M392 267c-2 0-8-1-13-3-2 19-17 34-36 34-9 0-16-3-23-9-5 14-18 24-33 24-9 0-18-3-26-8l0 4c39 13 67 50 67 94 0 55-45 99-100 99-55 0-100-44-100-99 0-43 27-80 65-94l1-128-30 31c-8 8-18 12-29 12-12 0-22-4-30-12-16-16-16-43 0-59 0 0 27-30 65-68l6-6c36-37 67-68 130-68 64 0 86 32 103 66 16 32 16 154 16 159 0 17-16 31-33 31z m-249 136c0 46 38 84 85 84 46 0 84-38 84-84 0-35-21-65-51-78l0 17c21 12 36 35 36 61 0 38-31 69-69 69-38 0-69-31-69-69 0-26 14-48 34-60l0-18c-29 14-50 43-50 78z m85 33c-20 0-35-16-35-39l0-36c-12 10-19 25-19 42 0 29 24 53 54 53 29 0 53-24 53-53 0-17-8-33-20-42l0 36c0 23-13 39-33 39z m18-182c0-4 3-8 7-8 5 0 8 4 8 8l0 21c0 16 15 23 26 23 11 0 20-10 20-21l0-28c0-4 4-8 8-8 4 0 8 4 8 8l0 13c0 11 9 20 20 20 11 0 21-9 21-20l0-34c0-4 3-7 7-7 4 0 8 3 8 7l0 20c3 2 9 4 13 4 9 0 17-8 17-16 0-34-2-129-14-153-16-31-33-57-89-57-56 0-84 28-119 63l-6 7c-38 37-65 67-65 68-5 5-8 11-8 18 0 8 3 14 8 19 5 5 12 8 19 8 7 0 13-3 18-8l43-44c2-3 5-3 8-2 3 1 5 4 5 7l-1 235c0 11 6 23 20 23 16 0 18-17 18-23l0-143z"/>
<glyph glyph-name="lasso" unicode="&#47;" d="M410 248c-3 9-13 16-25 16-3 0-6-1-9-2-3-1-7-3-10-5-5 10-15 17-27 17-4 0-7 0-10-1-7-3-12-8-16-13-5 6-14 10-23 10-3 0-6 0-10-1-7-3-13-8-17-14l-27 72c-5 14-15 23-27 23-3 0-7-1-10-2-16-6-22-23-16-40l62-169-32 16c-5 2-10 3-15 3-13 0-26-8-31-20-4-9-5-18-2-27 4-9 10-16 18-20 1 0 30-15 71-34l6-4c26-12 51-23 80-23l0 0c13 0 27 2 41 7 51 19 59 50 62 81 3 30-31 126-33 130z m20-128c-3-29-9-55-53-71-13-4-25-7-37-7l0 0c-26 0-48 11-74 23l-7 3c-40 19-69 35-70 35-5 2-9 7-11 12-2 6-2 12 0 17 4 8 12 13 20 13 3 0 7-1 9-2l47-23c2-1 5-1 7 1 2 2 2 5 1 7l-67 184c-3 9-3 20 8 24 2 1 4 1 6 1 6 0 12-5 15-14l41-112c1-4 5-5 8-4 3 1 5 5 4 8l-6 16c-5 13 6 23 14 26 2 0 3 1 5 1 8 0 14-5 17-12l7-22 1 0c1-3 4-5 8-4 3 2 5 5 4 9l-4 10c-3 9 1 18 10 22 2 0 4 1 6 1 7 0 14-5 16-12l9-25 0-1c2-3 5-5 9-4 3 2 5 5 3 9l-5 15c2 2 6 5 9 6 1 1 3 1 5 1 6 0 12-3 13-8 10-27 35-101 32-123z m-254 169l-5 15c0 0-1 1-1 2-2 0-4 0-6 0-43 0-79 35-79 79 0 43 36 78 79 78 44 0 79-35 79-78 0-2 0-4 0-6l-1 0-16 3c-3 1-5 0-7-2-1-3-1-5 0-8l21-29c2-3 6-4 9-2l30 21c2 1 3 4 2 6 0 3-2 5-5 5l-16 3c0 3 0 6 0 9 0 52-43 96-96 96-53 0-96-44-96-96 0-53 43-96 96-96 4 0 8 0 12 0z"/>
<glyph glyph-name="press-3" unicode="&#58;" d="M392 282c-2 0-8 0-13-2-2 18-17 33-36 33-9 0-16-3-23-8-5 14-18 23-33 23-9 0-18-2-26-8l0 37c21 12 36 35 36 61 0 38-31 69-69 69-38 0-69-31-69-69 0-26 14-48 34-60l1-161-30 30c-8 8-18 13-29 13-12 0-22-5-30-13-16-16-16-43 0-59 0 0 27-30 65-68l6-6c36-36 67-68 130-68 64 0 86 33 103 66 16 32 16 154 16 160 0 16-16 30-33 30z m-184 131c0 10 6 23 20 23 16 0 18-18 18-23l0-144c0-4 3-7 7-7 5 0 8 3 8 7l0 21c0 17 15 23 26 23 11 0 20-9 20-21l0-28c0-4 4-7 8-7 4 0 8 3 8 7l0 13c0 11 9 21 20 21 11 0 21-10 21-21l0-33c0-4 3-8 7-8 4 0 8 4 8 8l0 19c3 2 9 4 13 4 9 0 17-8 17-15 0-35-2-129-14-153-16-31-33-57-89-57-56 0-84 27-119 63l-6 6c-38 38-65 67-65 68-5 5-8 12-8 19 0 7 3 14 8 19 5 5 12 7 19 7 7 0 13-2 18-7l43-45c2-2 5-3 8-2 3 1 5 4 5 7z"/>
<glyph glyph-name="press-and-drag-3" unicode="&#59;" d="M392 282c-2 0-8 0-13-2-2 18-17 33-36 33-9 0-16-3-23-8-5 14-18 23-33 23-9 0-18-2-26-8l0 38c21 11 36 34 36 60 0 38-31 69-69 69-38 0-69-31-69-69 0-26 14-48 34-60l1-161-30 30c-8 8-18 13-29 13-12 0-22-5-30-13-16-16-16-43 0-59 0 0 27-30 65-68l6-6c36-36 67-68 130-68 64 0 86 33 103 66 16 32 16 154 16 160 0 16-16 30-33 30z m3-183c-16-31-33-57-89-57-56 0-84 27-119 63l-6 6c-38 38-65 67-65 68-5 5-8 12-8 19 0 7 3 14 8 19 5 5 12 7 19 7 7 0 13-2 18-7l43-45c2-2 5-3 8-2 3 1 5 4 5 7l-1 236c0 10 6 23 20 23 16 0 18-18 18-23l0-144c0-4 3-7 7-7 5 0 8 3 8 7l0 21c0 17 15 23 26 23 11 0 20-9 20-21l0-28c0-4 4-7 8-7 4 0 8 3 8 7l0 13c0 11 9 21 20 21 11 0 21-10 21-21l0-33c0-4 3-8 7-8 4 0 8 4 8 8l0 19c3 2 9 4 13 4 9 0 17-8 17-15 0-35-2-129-14-153z m-60 300c1-1 2-2 3-2 1 0 1 1 2 1 2 1 3 3 3 5l0 7 21 0 0-21-6 0c-2 0-3-2-4-4-1-2-1-4 0-6l13-15c1-1 3-2 4-2 2 0 3 0 4 2l13 15c1 1 1 4 1 6-1 2-3 4-5 4l-5 0 0 21 20 0 0-7c0-2 2-4 3-5 1 0 2-1 2-1 2 0 3 1 4 2l15 12c1 1 2 3 2 4 0 2-1 3-2 4l-15 13c-2 1-4 2-6 1-1-1-3-3-3-5l0-3-20 0 0 20 5 0c2 0 4 1 5 2 0 2 0 4-1 5l-13 16c-2 2-6 2-8-1l-13-15c-1-2-1-3 0-5 1-1 2-2 4-2l6 0 0-20-21 0 0 3c0 2-1 4-3 5-2 1-4 0-5-1l-16-13c-1-1-2-2-2-4 0-1 1-3 2-4z"/>
<glyph glyph-name="press-and-hold-3" unicode="&#60;" d="M392 282c-2 0-8 0-13-2-2 18-17 33-36 33-9 0-16-3-23-8-5 14-18 23-33 23-9 0-18-2-26-8l0 37c9 6 17 13 23 21 13-18 33-29 56-29 38 0 69 31 69 69 0 38-31 69-69 69-23 0-43-12-56-29-13 18-33 29-56 29-38 0-69-31-69-69 0-26 14-48 34-60l1-161-30 30c-8 8-18 13-29 13-12 0-22-5-30-13-16-16-16-43 0-59 0 0 27-30 65-68l6-6c36-36 67-68 130-68 64 0 86 33 103 66 16 32 16 154 16 160 0 16-16 30-33 30z m-52 190c30 0 54-24 54-54 0-30-24-54-54-54-29 0-53 24-53 54 0 30 24 54 53 54z m55-373c-16-31-33-57-89-57-56 0-84 27-119 63l-6 6c-38 38-65 67-65 68-5 5-8 12-8 19 0 7 3 14 8 19 5 5 12 7 19 7 7 0 13-2 18-7l43-45c2-2 5-3 8-2 3 1 5 4 5 7l-1 236c0 10 6 23 20 23 16 0 18-18 18-23l0-144c0-4 3-7 7-7 5 0 8 3 8 7l0 21c0 17 15 23 26 23 11 0 20-9 20-21l0-28c0-4 4-7 8-7 4 0 8 3 8 7l0 13c0 11 9 21 20 21 11 0 21-10 21-21l0-33c0-4 3-8 7-8 4 0 8 4 8 8l0 19c3 2 9 4 13 4 9 0 17-8 17-15 0-35-2-129-14-153z m-55 311l34 0c4 0 7 3 7 7 0 5-3 8-7 8l-26 0 0 24c0 4-3 7-8 7-4 0-7-3-7-7l0-34c0-4 3-5 7-5z"/>
<glyph glyph-name="scroll-horizontal-1" unicode="&#61;" d="M420 257c-2 0-6-1-10-2-2 15-15 27-30 27-7 0-14-2-19-7-4 12-15 20-28 20-8 0-15-2-22-7l0 77c0 19-11 32-27 32-17 0-29-13-29-32l0-180-24 26c-7 7-16 10-25 10-9 0-18-3-25-10-13-14-13-36 0-49 0-1 23-25 54-57l5-5c31-31 57-57 109-57 54 0 72 27 85 55 14 27 14 129 14 133 0 14-13 26-28 26z m3-153c-13-26-28-48-74-48-47 0-70 23-99 53l-6 5c-31 31-53 56-54 56-4 5-6 10-6 16 0 6 2 12 6 16 5 4 10 6 16 6 6 0 11-2 15-6l36-37c2-2 5-3 7-2 2 1 4 3 4 6l0 196c0 9 4 20 16 20 14 0 15-15 15-20l0-119c0-4 3-7 6-7 4 0 6 3 6 7l0 17c0 14 13 19 22 19 9 0 17-8 17-17l0-23c0-4 3-7 6-7 4 0 7 3 7 7l0 10c0 10 7 17 17 17 9 0 17-7 17-17l0-27c0-4 3-7 6-7 4 0 7 3 7 7l0 16c2 1 7 3 10 3 8 0 15-6 15-13 0-29-2-107-12-127z m-190 297c0 4-5 9-9 9l-126 0 0 13c0 3-2 5-5 6-2 1-6 0-8-2l-21-23c-2-3-2-6 0-9l21-24c2-1 6-2 8-1 3 1 5 3 5 6l0 17 126 0c4 0 9 4 9 8z m-116 34l130 0 0-16c0-3 1-5 3-6 3-1 4-1 6 1l26 24c2 2 2 6 0 8l-26 24c-2 2-3 3-6 2-2-1-3-4-3-6l0-14-130 0c-4 0-8-4-8-8 0-5 4-9 8-9z"/>
<glyph glyph-name="scroll-vertical-1" unicode="&#62;" d="M378 261c-2 0-7-1-11-2-1 15-14 27-30 27-7 0-14-2-19-6-4 11-15 19-28 19-7 0-15-2-21-7l0 78c0 19-11 32-28 32-17 0-29-14-29-32l1-181-25 26c-7 7-15 10-25 10-9 0-18-3-24-10-14-14-14-36-1-49 1 0 23-25 55-57l5-5c30-30 56-57 108-57 54 0 72 28 86 55 13 27 13 129 13 133 0 14-13 26-27 26z m2-153c-13-26-27-48-74-48-47 0-70 23-99 53l-5 5c-32 32-54 56-54 57-5 4-7 9-7 15 0 6 3 12 7 16 4 4 9 7 15 7 6 0 12-3 16-7l35-37c2-2 5-3 7-2 3 1 4 4 4 6l0 197c0 8 4 19 16 19 14 0 15-15 15-19l0-120c0-3 3-6 6-6 4 0 7 3 7 6l0 17c0 14 13 19 21 19 10 0 17-7 17-17l0-23c0-4 3-7 7-7 3 0 6 3 6 7l0 11c0 9 8 17 17 17 9 0 17-8 17-17l0-28c0-4 3-7 7-7 3 0 6 3 6 7l0 16c2 1 8 3 11 3 7 0 14-6 14-13 0-28-2-107-12-127z m-226 323l17 0 0-130c0-4 4-8 8-8 4 0 9 4 9 8l0 130 17 0c2 0 5 1 6 3 1 2 0 5-2 7l-25 25c-3 3-7 2-9 0l-26-26c-2-2-2-4-1-6 1-2 3-3 6-3z m-13-188l26 26c1 2 2 5 1 8-1 2-3 5-6 5l-17 0 0 126c0 4-4 9-8 9-5 0-9-5-9-9l0-126-17 0c-3 0-5-3-6-5-1-3 0-6 1-8l26-25c3-3 7-3 9-1z"/>
<glyph glyph-name="swipe-down" unicode="&#63;" d="M435 318c-21 21-117 56-121 58-2 1-5 1-8 1-11 0-21-8-25-18-1-2-2-6-2-11-3 1-5 1-8 1-13 0-24-8-28-20-3-6-3-13 0-20-13 0-24-8-28-19-3-8-3-16-1-23l-73 27c-4 1-9 2-14 2-12 0-21-6-25-18-3-8-3-16 2-23 3-7 10-12 18-15l169-61-32-14c-9-4-15-11-18-20-4-9-3-18 1-26 6-13 18-21 32-21 5 0 10 1 14 3 0 1 31 13 72 32l7 3c38 18 72 33 90 82 18 51-1 77-22 100z m10-95c-16-44-46-58-84-75l-6-3c-41-19-71-32-72-32-3-1-6-2-9-2-9 0-17 5-21 13-2 5-2 11 0 17 2 5 6 10 11 12l47 21c3 1 4 3 4 6 0 2-2 5-4 6l-185 66c-5 2-9 5-11 9-3 4-3 8-1 13 2 6 7 9 13 9 3 0 7 0 10-1l112-41c3-1 7 0 8 4 2 3 0 7-4 8l-16 6c-5 2-9 5-11 11-1 4-1 10 1 15 2 7 9 11 16 11 2 0 4 0 6-1l22-8c3-1 7 1 8 4 1 4-1 7-4 8l-10 4c-4 2-8 5-10 9-2 4-2 9 0 13 2 7 9 11 16 11 2 0 4 0 6-1l26-9c3-2 7 0 8 3 1 4-1 7-4 9l-15 5c-1 3 0 8 1 11 2 7 11 12 17 10 27-10 100-39 115-55 20-21 36-42 20-86z m-351-49c-5-1-10-3-15-4-17 75-14 154 8 228 1 4-1 10-5 11-4 1-10-2-11-7-24-76-26-158-8-235-7-2-13-3-19-5-3 0-5-1-5-4 0-3 1-5 3-7 11-7 22-14 33-21 3-2 7 0 8 3 6 11 11 22 17 33 2 2 2 4 0 6-1 2-4 2-6 2z"/>
<glyph glyph-name="swipe-left" unicode="&#64;" d="M415 282c-4 10-14 16-26 16-3 0-6 0-9-2-3-1-6-3-10-5-4 11-15 18-27 18-3 0-7-1-10-2-7-3-12-7-15-13-6 6-14 10-23 10-4 0-7 0-10-1-8-3-14-8-18-14l-27 73c-5 14-15 22-27 22-3 0-6-1-10-2-15-6-22-22-16-40l62-169-32 16c-4 2-9 3-15 3-13 0-25-8-31-20-4-9-4-18-1-27 3-9 9-16 18-19 0-1 29-16 70-35l7-3c26-13 50-24 79-24l0 0c13 0 27 2 41 8 51 18 59 50 62 80 4 30-31 126-32 130z m20-128c-4-29-10-54-54-70-13-5-25-7-37-7l0 0c-26 0-48 10-74 22l-7 3c-40 19-69 35-70 35-5 2-9 7-11 12-2 6-2 12 1 18 3 7 11 12 19 12 4 0 7 0 10-2l46-23c2-1 5 0 7 1 2 2 3 5 2 7l-68 185c-3 8-2 19 9 23 2 1 3 1 5 1 6 0 12-5 15-14l41-112c1-3 5-5 8-4 4 1 5 5 4 8l-6 16c-4 14 6 23 14 26 2 0 4 1 6 1 7 0 13-5 16-12l8-21 0-1c1-3 5-5 8-3 3 1 5 4 4 8l-4 10c-3 9 2 19 10 22 2 0 4 1 6 1 7 0 14-5 16-12l10-25 0-1c1-3 5-5 8-3 3 1 5 4 4 8l-6 15c2 2 6 5 9 6 2 1 3 1 5 1 6 0 12-3 13-7 10-27 35-102 33-124z m-329 255c75 17 153 15 227-8 4-1 10 1 11 6 1 4-2 9-6 11-77 23-158 25-236 7-2 7-3 13-5 19 0 3-1 5-4 5-3 0-5-1-7-3-7-11-14-21-21-32-2-4 0-8 3-9 12-5 23-11 33-17 2-2 4-2 6 0 3 1 3 4 2 6-1 5-2 10-3 15z"/>
<glyph glyph-name="swipe-right" unicode="&#91;" d="M363 229c-4 1-8 2-11 2 4 14-4 30-19 36-6 2-13 2-20 0 0 4-1 8-2 12-4 8-10 13-17 16-7 2-16 3-23 1l27 72c3 8 3 16 1 23-3 8-8 14-16 17-4 1-7 2-10 2-13 0-24-9-29-22l-61-170-14 33c-6 12-18 20-32 20-5 0-10-1-14-3-9-4-15-11-18-20-4-9-3-18 1-27 0 0 12-31 31-72l3-6c18-39 34-72 82-89 14-5 26-7 38-7 0 0 0 0 0 0 28 0 46 14 62 29 21 20 56 116 58 120 2 6 2 13-2 20-3 6-9 11-15 13z m5-29c-10-27-39-100-55-116-14-13-29-26-53-26-10 0-21 3-33 7-44 16-58 46-75 83l-3 7c-19 40-31 71-32 72-2 5-3 11 0 17 2 5 6 10 11 12 3 1 6 2 9 2 9 0 17-5 20-12l21-48c1-2 3-4 6-4 3 1 5 2 6 5l66 184c4 11 13 16 22 13 5-2 7-5 9-9 1-4 1-9-1-14l-41-113c-1-3 0-7 4-8 3-1 7 1 8 4l6 16c4 11 14 12 18 12 3 0 6 0 8-1 5-2 8-5 10-9 2-4 2-9 1-13l-8-22c-2-3 0-7 3-8 4-2 7 0 9 3l3 11c3 6 9 11 16 11 2 0 4-1 6-1 9-4 13-13 10-22l-9-26c-1-4 0-7 4-8 3-2 7 0 8 3l5 16c1 0 2 0 3 0 3 0 7-1 8-1 4-1 7-4 9-8 1-1 2-5 1-9z m45 235c-7 11-14 22-22 32-1 3-3 4-6 3-3 0-4-2-5-5-1-6-2-12-4-18-78 18-159 15-236-8-4-2-8-7-6-11 1-4 7-7 11-6 74 23 152 25 227 8-1-5-2-10-3-14-1-3-1-5 1-7 3-1 4-1 7 0 10 6 21 12 33 17 3 2 4 6 3 9z"/>
<glyph glyph-name="swipe-up" unicode="&#93;" d="M435 318c-21 21-117 56-121 58-2 1-5 1-8 1-11 0-21-8-25-18-1-2-2-6-2-11-3 1-5 1-8 1-13 0-24-8-28-20-3-6-3-13 0-20-13 0-24-8-28-19-3-8-3-16-1-23l-73 27c-4 1-9 2-14 2-12 0-21-6-25-18-3-8-3-16 2-23 3-7 10-12 18-15l169-61-32-14c-9-4-15-11-18-20-4-9-3-18 1-26 6-13 18-21 32-21 5 0 10 1 14 3 0 1 31 13 72 32l7 3c38 18 72 33 90 82 18 51-1 77-22 100z m10-95c-16-44-46-58-84-75l-6-3c-41-19-71-32-72-32-3-1-6-2-9-2-9 0-17 5-21 13-2 5-2 11 0 17 2 5 6 10 11 12l47 21c3 1 4 3 4 6 0 2-2 5-4 6l-185 66c-5 2-9 5-11 9-3 4-3 8-1 13 2 6 7 9 13 9 3 0 7 0 10-1l112-41c3-1 7 0 8 4 2 3 0 7-4 8l-16 6c-5 2-9 5-11 11-1 4-1 10 1 15 2 7 9 11 16 11 2 0 4 0 6-1l22-8c3-1 7 1 8 4 1 4-1 7-4 8l-10 4c-4 2-8 5-10 9-2 4-2 9 0 13 2 7 9 11 16 11 2 0 4 0 6-1l26-9c3-2 7 0 8 3 1 4-1 7-4 9l-15 5c-1 3 0 8 1 11 2 7 11 12 17 10 27-10 100-39 115-55 20-21 36-42 20-86z m-345 150c-6 10-11 21-17 33-1 3-5 4-8 2-11-6-22-13-33-21-2-1-3-3-3-6 0-3 2-4 5-5 6-1 12-3 19-4-18-78-16-159 8-236 1-5 7-8 11-6 4 1 6 7 5 11-22 74-25 152-8 227 5-1 10-2 15-3 2-1 5-1 6 1 2 2 2 4 0 7z"/>
<glyph glyph-name="tap-3" unicode="&#94;" d="M392 282c-2 0-8 0-13-2-2 18-17 33-36 33-9 0-16-3-23-8-5 14-18 23-33 23-9 0-18-2-26-8l0 37c21 12 36 35 36 61 0 38-31 69-69 69-38 0-69-31-69-69 0-26 14-48 34-60l1-161-30 30c-8 8-18 13-29 13-12 0-22-5-30-13-16-16-16-43 0-59 0 0 27-30 65-68l6-6c36-36 67-68 130-68 64 0 86 33 103 66 16 32 16 154 16 160 0 16-16 30-33 30z m-218 136c0 30 24 54 54 54 29 0 53-24 53-54 0-17-8-32-20-42l0 37c0 23-13 38-33 38-20 0-35-16-35-38l0-36c-12 10-19 24-19 41z m34-5c0 10 6 23 20 23 16 0 18-18 18-23l0-144c0-4 3-7 7-7 5 0 8 3 8 7l0 21c0 17 15 23 26 23 11 0 20-9 20-21l0-28c0-4 4-7 8-7 4 0 8 3 8 7l0 13c0 11 9 21 20 21 11 0 21-10 21-21l0-33c0-4 3-8 7-8 4 0 8 4 8 8l0 19c3 2 9 4 13 4 9 0 17-8 17-15 0-35-2-129-14-153-16-31-33-57-89-57-56 0-84 27-119 63l-6 6c-38 38-65 67-65 68-5 5-8 12-8 19 0 7 3 14 8 19 5 5 12 7 19 7 7 0 13-2 18-7l43-45c2-2 5-3 8-2 3 1 5 4 5 7z"/>
<glyph glyph-name="doubletap-4" unicode="&#95;" d="M352 261c-2 0-6-1-11-2-1 15-14 27-30 27-7 0-13-2-18-6-4 11-14 19-26 19-9 0-16-3-21-9l0 8c28 13 48 42 48 76 0 46-37 83-83 83-46 0-83-37-83-83 0-37 24-68 57-79l1-62c-3-2-8-5-15-12-23-21-31-72-5-111 29-44 63-63 114-63 54 0 72 28 86 55 13 27 14 129 14 133 0 14-13 26-28 26z m-169 108l1-31c-11 9-18 21-18 36 0 25 20 45 45 45 25 0 45-20 45-45 0-12-5-22-12-30l-1 26c0 18-13 32-30 32-17 0-30-14-30-33z m-42 5c0 39 31 70 70 70 39 0 70-31 70-70 0-27-14-50-36-62l0 15c14 11 24 28 24 47 0 32-26 57-58 57-32 0-58-25-58-57 0-22 13-41 31-51l1-14c-26 10-44 35-44 65z m214-266c-13-26-28-48-75-48-46 0-76 17-103 57-16 24-22 72 2 95 3 2 6 4 8 6l0-45c1-3 3-6 7-6 4 0 6 3 6 6l-4 197c0 11 7 19 17 19 10 0 17-8 17-20l5-119c0-3 2-6 6-6 3 0 6 2 6 5l3 19c1 1 1 1 1 1 0 10 6 17 16 17 10 0 15-8 15-17l0-12c0-4 2-7 6-7 4 0 6 3 6 7 0 9 8 17 17 17 10 0 18-8 18-17l0-28c0-4 2-7 6-7 3 0 6 3 6 7l0 16c3 1 8 3 11 3 8 0 15-6 15-13 0-28-2-107-12-127z"/>
<glyph glyph-name="lasso-1" unicode="&#96;" d="M166 306c-2 0-4 0-6 0-44 0-79 35-79 79 0 43 35 78 79 78 44 0 79-35 79-78 0-2 0-4 0-6l-1 0-17 3c-2 1-5 0-6-2-2-3-1-5 0-8l21-29c2-3 6-4 9-2l29 21c2 1 3 4 3 6-1 3-3 5-5 5l-16 3c0 3 0 6 0 9 0 52-43 96-96 96-53 0-96-44-96-96 0-53 43-96 96-96 4 0 8 0 12 0l-5 15c-1 0-1 1-1 2z m240-58c-4 10-14 17-25 17-4 0-7-1-10-2-1-1-5-3-9-6-5 11-16 18-27 18-4 0-7-1-11-2-6-2-11-7-15-12-7 9-20 13-31 9-8-3-13-8-17-15l-29 73c-5 13-16 22-29 22-3 0-7-1-10-2-16-6-24-23-17-41l49-127c-3-3-6-8-10-16-15-28-5-78 33-106 28-20 53-30 79-30 16 0 32 4 50 10 51 19 58 50 62 81 3 29-32 125-33 129z m20-128c-3-29-10-54-53-70-17-6-32-9-46-9-24 0-46 9-71 27-23 17-46 60-30 90 2 3 3 6 5 8l16-42c1-3 5-4 8-3 3 1 5 5 4 8l-71 183c-4 11 0 20 9 24 9 3 19-2 23-13l45-110c1-3 4-5 7-4 4 1 5 4 5 7l-4 19c0 1 0 1 0 1-2 5-1 9 0 13 2 4 5 7 9 9 9 3 17-2 20-11l5-12 0 0c1-3 5-5 8-4 3 1 5 5 4 8l0 0c-2 5-2 9 0 13 2 5 6 8 10 9 2 1 4 1 6 1 7 0 13-4 16-11 0 0 8-21 10-26 2-5 5-5 8-4 4 1 5 4 3 8-1 4-5 16-5 16 2 2 6 5 9 6 1 1 3 1 5 1 6 0 11-3 13-8 10-27 35-102 32-124z"/>
</font>
</defs>
</svg>
